<svg width="411" height="56" viewBox="0 0 411 56" fill="none" xmlns="http://www.w3.org/2000/svg">
<path fill-rule="evenodd" clip-rule="evenodd" d="M175.073 31.1733L178.049 32.7672C179.764 33.6851 180.835 34.347 181.323 34.7657C182.053 35.4102 182.405 36.1507 182.405 37.0105C182.405 37.9917 182.04 38.7088 181.352 39.2179C180.641 39.7512 180.358 40.0076 178.804 40.02C175.573 40.0459 173.116 38.0783 171.728 36.5961V39.6196C173.178 40.614 175.772 41.9811 179.076 41.9811C181.316 41.9811 183.196 41.4283 184.672 40.2951C186.158 39.1631 186.911 37.7378 186.911 36.0462C186.911 34.7907 186.492 33.6813 185.65 32.7434C184.815 31.8377 183.407 30.8744 181.476 29.8515L178.416 28.2292C177.294 27.6373 176.497 27.0828 176.002 26.5767C175.541 26.1143 175.303 25.5551 175.303 24.8792C175.303 24.1349 175.599 23.5974 176.169 23.2097C176.793 22.7851 177.525 22.4641 178.361 22.5707C181.799 23.0097 185.44 25.6197 185.44 25.6197V20.5081C185.44 20.5081 184.498 21.7716 182.882 21.516C182.83 21.508 182.305 21.392 181.124 21.043C179.984 20.6932 178.975 20.5081 178.106 20.5081C176.071 20.5081 174.392 21.0409 173.116 22.1376C171.851 23.2263 171.22 24.5943 171.22 26.2094C171.22 27.4666 171.771 28.6092 172.829 29.6227C173.399 30.1555 174.154 30.6722 175.073 31.1733Z" fill="white"/>
<path fill-rule="evenodd" clip-rule="evenodd" d="M63.7865 33.5463V20.9268H58.2345C60.4356 20.9268 61.6215 23.408 61.6215 25.731V33.5463C61.6215 35.437 61.388 36.7668 60.9666 37.591C60.2251 39.0388 58.7676 39.8145 56.4214 39.8145C54.3035 39.8145 52.9661 39.0698 52.259 37.6546C51.8715 36.8611 51.6602 35.7134 51.6602 34.1743V20.9319H44.3838C46.5844 20.9319 47.7716 23.4131 47.7716 25.7327V33.9552C47.7716 35.8501 48.0941 37.4194 48.7758 38.6346C50.0444 40.9206 52.4216 42.0105 55.7491 42.0105C59.1161 42.0105 61.5145 40.904 62.7844 38.5875C63.4656 37.3409 63.7865 35.6463 63.7865 33.5463Z" fill="white"/>
<path fill-rule="evenodd" clip-rule="evenodd" d="M91.7361 25.7359V41.5857H95.6243V20.9321H88.3496C90.5515 20.9321 91.7361 23.413 91.7361 25.7359Z" fill="white"/>
<path fill-rule="evenodd" clip-rule="evenodd" d="M109.57 29.8524L106.513 28.2296C105.39 27.6373 104.593 27.0832 104.098 26.5767C103.635 26.1143 103.399 25.5551 103.399 24.8792C103.399 24.1349 103.695 23.5978 104.265 23.2097C104.889 22.7851 105.621 22.4646 106.457 22.5711C109.895 23.0101 113.537 25.6197 113.537 25.6197V20.5081C113.537 20.5081 112.595 21.7721 110.978 21.516C110.926 21.5084 110.401 21.392 109.22 21.043C108.08 20.6936 107.071 20.5081 106.203 20.5081C104.168 20.5081 102.488 21.0409 101.212 22.1376C99.9467 23.2267 99.3169 24.5943 99.3169 26.2094C99.3169 27.4666 99.867 28.6092 100.925 29.6227C101.495 30.1555 102.25 30.6727 103.169 31.1733L106.145 32.7672C107.86 33.6851 108.931 34.347 109.419 34.7657C110.149 35.4106 110.501 36.1507 110.501 37.0105C110.501 37.9917 110.136 38.7088 109.448 39.2183C108.737 39.7512 108.454 40.0076 106.898 40.02C103.669 40.0463 101.212 38.0783 99.8245 36.5965V39.6196C101.274 40.6144 103.869 41.9811 107.172 41.9811C109.412 41.9811 111.292 41.4287 112.768 40.2955C114.254 39.1636 115.007 37.7378 115.007 36.0462C115.007 34.7907 114.588 33.6817 113.746 32.7438C112.911 31.8382 111.503 30.8744 109.57 29.8524Z" fill="white"/>
<path fill-rule="evenodd" clip-rule="evenodd" d="M69.9585 25.7359V41.5857H72.1222L72.1239 26.3023L84.4497 41.5857H85.8711L85.8703 20.9321H80.3192C82.5207 20.9321 83.7057 23.413 83.7057 25.7359L83.707 34.5559L72.8085 20.9321H66.572C68.7731 20.9321 69.9585 23.413 69.9585 25.7359Z" fill="white"/>
<path fill-rule="evenodd" clip-rule="evenodd" d="M154.715 24.5503C155.889 23.1275 157.292 22.4393 158.947 22.4393C160.542 22.4397 161.929 23.1012 163.125 24.4709C164.292 25.8079 164.92 28.0396 164.92 31.2656C164.92 34.4521 164.296 36.6774 163.139 38.0343C161.962 39.4113 160.573 40.0779 158.947 40.0779C157.281 40.0779 155.88 39.3939 154.715 37.9821C153.569 36.5823 152.958 34.371 152.958 31.2656C152.958 28.1504 153.571 25.9396 154.715 24.5503ZM158.947 42.0102C161.669 42.0089 164.009 41.1147 165.94 39.3238C168.105 37.3121 169.173 34.6088 169.173 31.2656C169.173 27.9738 168.143 25.2989 166.049 23.2863C164.123 21.4326 161.746 20.5078 158.947 20.5078C156.155 20.5082 153.782 21.4279 151.859 23.2715C149.755 25.2933 148.718 27.9733 148.718 31.2656C148.718 34.4016 149.691 37.0022 151.658 39.0304C153.593 41.0175 156.034 42.0102 158.947 42.0102Z" fill="white"/>
<path fill-rule="evenodd" clip-rule="evenodd" d="M119.483 25.7359V41.5857H123.371V20.9321H116.096C118.296 20.9321 119.483 23.413 119.483 25.7359Z" fill="white"/>
<path fill-rule="evenodd" clip-rule="evenodd" d="M142.952 25.7359V34.5559L132.055 20.9321H125.819C128.019 20.9321 129.204 23.413 129.204 25.7359V41.5857H131.369V26.3023L143.696 41.5857H145.117V20.9321H139.567C141.767 20.9321 142.952 23.413 142.952 25.7359Z" fill="white"/>
<path fill-rule="evenodd" clip-rule="evenodd" d="M28.8164 37.5865V27.9319C28.8164 26.4365 28.8636 18.8669 34.7529 16.7822C36.2027 16.2383 38.785 16.2829 38.9666 13.9719C39.0566 12.9745 39.4195 9.43939 39.4195 9.43939C39.8273 5.76798 43.6782 4.58933 46.08 4H38.4233C38.4233 4 30.4492 4.09086 29.8147 9.43896C29.8147 9.43896 29.4514 12.9745 29.361 13.9719C29.1793 16.2829 26.5971 16.2383 25.1473 16.7822C19.3025 18.8669 19.2121 26.3006 19.2121 27.9319V37.5865C19.2121 40.2606 17.0823 42.3912 14.4097 42.3912C11.7817 42.3912 9.6069 40.2606 9.6069 37.5865V20.8158H0.00127328L0 37.5865C0 45.5637 6.48015 52 14.4097 52C22.3838 52 28.8164 45.5637 28.8164 37.5865Z" fill="white"/>
<g clip-path="url(#clip0_253_1546)">
<path d="M296.723 22.1912C296.723 20.9185 296.114 20.7553 295.973 20.7227H298.723C298.626 20.7335 298.006 20.8641 298.006 22.2129V30.6978C298.006 33.1345 296.288 34.0917 295.277 34.0917C296.169 33.5805 296.723 32.6123 296.723 30.6978V22.1912Z" fill="white"/>
<path d="M307.016 31.6007H300.407C300.537 31.5789 301.157 31.4375 301.157 30.0451V22.2565C301.157 20.9076 300.494 20.7335 300.353 20.7227H306.701V22.4849C306.668 22.3108 306.505 21.5168 305.038 21.5168H302.44V25.6286H304.603C305.625 25.6286 305.766 25.0739 305.799 24.9542V27.0972C305.777 27.021 305.657 26.4227 304.625 26.4227H302.451V30.7631H305.125C306.408 30.7631 306.875 30.5129 307.321 29.6209L307.038 31.5789L307.016 31.6007Z" fill="white"/>
<path d="M314.169 30.6758C313.604 31.4046 312.626 31.8397 311.256 31.8397C310.212 31.8397 309.245 31.4916 308.527 30.9913V28.5111C309.082 30.3168 310.125 31.0021 311.441 31.0021C312.506 31.0021 313.56 30.4147 313.56 29.1746C313.56 26.3137 308.647 26.6618 308.647 23.3114C308.647 21.5274 310.169 20.4287 311.886 20.4287C312.778 20.4287 313.68 20.755 314.18 21.1684V23.3223C313.745 21.8429 312.8 21.2446 311.702 21.2446C310.495 21.2446 309.767 22.1148 309.767 23.0286C309.767 25.6066 314.745 25.3021 314.745 28.8918C314.745 29.5336 314.561 30.1645 314.158 30.6758" fill="white"/>
<path d="M322.91 20.7227H325.53C325.388 20.7444 324.736 20.8858 324.736 22.2565V27.8913C324.736 30.4911 323.627 31.8509 320.779 31.8509C317.931 31.8509 316.844 30.5564 316.844 27.9674V22.2347C316.844 20.9185 316.224 20.7444 316.094 20.7335H318.855C318.757 20.7553 318.127 20.8749 318.127 22.2238V27.9348C318.127 30.0234 318.985 30.9697 320.975 30.9697C323.16 30.9697 323.725 29.7297 323.725 27.9674V22.2673C323.725 20.9511 323.073 20.7662 322.921 20.7335" fill="white"/>
<path d="M329.672 31.6008H326.954C327.085 31.579 327.672 31.4376 327.672 30.1322V22.2131C327.672 20.9186 327.052 20.7554 326.922 20.7228H329.672C329.574 20.7445 328.944 20.8859 328.944 22.2131V30.1322C328.944 31.405 329.531 31.579 329.672 31.6008ZM327.715 20.1354L328.781 17.7422H330.487L327.726 20.1354H327.715Z" fill="white"/>
<path d="M337.792 21.5273H335.966V30.0665C335.966 31.3936 336.553 31.5677 336.694 31.5894H333.944C334.075 31.5677 334.672 31.448 334.672 30.0665V21.5273H332.835C331.661 21.5273 331.216 21.7448 330.987 22.5281L331.107 20.7114H339.499L339.63 22.5389C339.412 21.7883 339.075 21.5273 337.792 21.5273Z" fill="white"/>
<path d="M349.403 31.6005H346.501C346.577 31.6005 346.99 31.5135 346.99 30.937C346.99 30.6976 346.881 30.4148 346.718 29.9688L346.066 28.2392H341.978L341.337 29.9035C341.196 30.2952 341.098 30.5889 341.098 30.8173C341.098 31.4917 341.598 31.5896 341.696 31.6005H339.108C339.184 31.5788 339.782 31.4373 340.478 29.7077L344.25 20.2656L347.979 29.7186C348.609 31.3721 349.262 31.5788 349.392 31.6005M344.011 22.9416L342.272 27.4125H345.74L344.011 22.9416Z" fill="white"/>
<path d="M356.12 30.6758C355.555 31.4046 354.577 31.8397 353.218 31.8397C352.174 31.8397 351.196 31.4916 350.489 30.9913V28.5111C351.044 30.3168 352.087 31.0021 353.413 31.0021C354.479 31.0021 355.522 30.4147 355.522 29.1746C355.522 26.3137 350.609 26.6618 350.609 23.3114C350.609 21.5274 352.142 20.4287 353.848 20.4287C354.74 20.4287 355.642 20.755 356.131 21.1684V23.3223C355.707 21.8429 354.751 21.2446 353.653 21.2446C352.446 21.2446 351.718 22.1148 351.718 23.0286C351.718 25.6066 356.707 25.3021 356.707 28.8918C356.707 29.5336 356.512 30.1645 356.12 30.6758Z" fill="white"/>
<path d="M366.197 31.6007H361.794C361.925 31.5789 362.512 31.4375 362.512 30.0342V22.2565C362.512 20.9076 361.871 20.7335 361.751 20.7227H365.751C367.773 20.7227 368.654 22.0063 368.654 23.3225C368.654 24.5517 367.849 25.6939 366.686 25.9006C368.241 26.0855 369.197 27.38 369.197 28.7724C369.197 30.1648 368.197 31.6007 366.197 31.6007ZM365.338 21.5168H363.806V25.5743H365.458C366.534 25.5743 367.317 24.7584 367.317 23.4095C367.317 22.2347 366.404 21.5168 365.338 21.5168ZM365.567 26.3683H363.806V30.7739H365.73C367.426 30.7739 367.849 29.697 367.849 28.6962C367.849 27.3147 366.98 26.3683 365.577 26.3683" fill="white"/>
<path d="M376.982 31.6003L374.754 27.7713C374.33 27.0207 373.96 26.8249 373.384 26.8249H372.982V30.0883C372.982 31.4045 373.569 31.5786 373.721 31.5894H371.004C371.134 31.5677 371.732 31.448 371.732 30.0883V22.267C371.732 20.9072 371.08 20.7441 370.949 20.7114H374.667C376.754 20.7114 378.113 22.0168 378.113 23.7029C378.113 25.0191 377.276 26.5312 375.221 26.6943C375.493 26.8031 375.808 27.1512 376.048 27.5646L377.885 30.6648C378.298 31.361 378.82 31.5133 379.157 31.5894H376.972L376.982 31.6003ZM374.406 21.5164H372.96V26.0634H374.406C376.167 26.0634 376.809 24.9974 376.809 23.7899C376.809 22.6586 375.982 21.5164 374.406 21.5164Z" fill="white"/>
<path d="M390.147 31.6005H387.245C387.321 31.6005 387.734 31.5135 387.734 30.937C387.734 30.6976 387.625 30.4148 387.462 29.9688L386.81 28.2392H382.722L382.081 29.9035C381.94 30.2952 381.842 30.5889 381.842 30.8173C381.842 31.4917 382.342 31.5896 382.451 31.6005H379.863C379.939 31.5788 380.526 31.4373 381.233 29.7077L384.994 20.2656L388.723 29.7186C389.353 31.3721 390.006 31.5788 390.136 31.6005M384.755 22.9416L383.027 27.4125H386.494L384.766 22.9416H384.755Z" fill="white"/>
<path d="M396.853 30.6758C396.277 31.4046 395.309 31.8397 393.95 31.8397C392.896 31.8397 391.928 31.4916 391.211 30.9913V28.5111C391.765 30.3168 392.809 31.0021 394.124 31.0021C395.19 31.0021 396.244 30.4147 396.244 29.1746C396.244 26.3137 391.331 26.6618 391.331 23.3114C391.331 21.5274 392.852 20.4287 394.57 20.4287C395.461 20.4287 396.364 20.755 396.864 21.1684V23.3223C396.429 21.8429 395.483 21.2446 394.385 21.2446C393.179 21.2446 392.45 22.1148 392.45 23.0286C392.45 25.6066 397.44 25.3021 397.44 28.8918C397.44 29.5336 397.255 30.1645 396.853 30.6758Z" fill="white"/>
<path d="M401.635 31.6007H398.917C399.048 31.5789 399.635 31.4375 399.635 30.1321V22.2129C399.635 20.9185 399.015 20.7553 398.885 20.7227H401.635C401.537 20.7444 400.907 20.8858 400.907 22.2129V30.1321C400.907 31.4049 401.494 31.5789 401.635 31.6007Z" fill="white"/>
<path d="M409.963 31.6007H403.31C403.419 31.5789 404.006 31.4157 404.006 29.969V22.2456C404.006 20.9076 403.397 20.7444 403.277 20.7227H406.006C405.875 20.7444 405.278 20.9076 405.278 22.2456V30.7848H407.865C409.245 30.7848 409.822 30.6543 410.235 29.5121L409.963 31.6007Z" fill="white"/>
<path d="M263.122 40.8144H262.948L263.035 40.8253H263.122V40.8144ZM259.47 40.3793L259.611 40.4446H259.763C259.666 40.4446 259.568 40.4119 259.47 40.3793ZM256.23 38.976L256.415 39.1283L256.633 39.2154C256.502 39.1392 256.372 39.0631 256.241 38.976M253.524 36.7134L253.687 36.9636L253.915 37.1377C253.784 36.9963 253.643 36.8548 253.513 36.7134M251.534 33.8416L251.632 34.1136L251.795 34.3311C251.708 34.168 251.621 34.0048 251.534 33.8416ZM250.393 30.5021C250.393 30.6 250.393 30.6979 250.415 30.7958L250.523 31.0677C250.491 30.9372 250.458 30.8067 250.425 30.687V30.6544L250.393 30.5021ZM250.164 27.0102L250.11 27.2604L250.132 27.5324C250.143 27.3583 250.154 27.1843 250.164 27.0102ZM250.838 23.6381L250.762 23.7903L250.73 23.9644C250.762 23.8556 250.795 23.7468 250.838 23.6489M252.36 20.5705L252.306 20.6248L252.273 20.701L252.36 20.5705ZM260.579 15.1858H260.492L260.405 15.2185L260.59 15.1858H260.579ZM261.111 15.1097C261.622 15.0444 262.144 15.0118 262.677 15.0118C262.916 15.0118 263.144 15.0118 263.372 15.0335L263.568 15.0118L263.742 15.0553C264.818 15.1532 265.862 15.3925 266.84 15.7406L266.938 15.7624H266.949L267.036 15.8168C268.079 16.2192 269.047 16.7523 269.938 17.405L270.004 17.4376L270.058 17.5029C270.949 18.1773 271.765 18.9714 272.45 19.8634L272.493 19.9069L272.526 19.9722C273.21 20.875 273.787 21.8758 274.221 22.9419L274.243 22.9854L274.254 23.0398C274.428 23.4858 274.591 23.9426 274.711 24.4104L274.743 24.5192C274.895 25.1175 275.015 25.7158 275.091 26.3249L275.113 26.4228V26.5316C275.156 26.9885 275.189 27.4454 275.189 27.9022C275.189 28.5549 275.145 29.1967 275.048 29.8168V29.9799L275.004 30.1431C274.982 30.2845 274.95 30.4368 274.917 30.5891V30.6435C274.7 31.5681 274.406 32.4275 274.069 33.2216L274.026 33.3848L273.939 33.537C273.471 34.5487 272.906 35.4516 272.232 36.2674L272.156 36.3871L272.036 36.4959C271.645 36.9419 271.232 37.3552 270.775 37.7468C270.471 38.0079 270.156 38.2581 269.819 38.4974L269.558 38.7476C269.449 38.8129 269.33 38.8673 269.21 38.9108C269.112 38.976 269.014 39.0413 268.906 39.0957L268.862 39.1175L268.699 39.2154C268.101 39.5526 267.482 39.8354 266.829 40.0747C266.699 40.1509 266.568 40.2161 266.438 40.2814C266.286 40.314 266.134 40.3358 265.981 40.3467C265.199 40.5642 264.383 40.7057 263.546 40.7709C263.372 40.8144 263.199 40.8579 263.025 40.8797C262.84 40.8579 262.666 40.8362 262.481 40.7927C261.698 40.7818 260.927 40.6948 260.187 40.5425C259.992 40.5425 259.796 40.5316 259.6 40.5098H259.589C259.405 40.4337 259.209 40.3467 259.035 40.2488C258.328 40.0312 257.654 39.7484 257.002 39.4112C256.796 39.3459 256.589 39.2806 256.383 39.1936C256.198 39.0413 256.035 38.889 255.872 38.7259C255.285 38.3342 254.741 37.8991 254.23 37.4205C254.024 37.29 253.839 37.1594 253.643 37.0071C253.502 36.8004 253.371 36.5938 253.252 36.3762L253.208 36.3218L253.176 36.2783L253.023 36.0934C252.665 35.6583 252.339 35.1905 252.034 34.6901C251.882 34.5161 251.73 34.3311 251.599 34.1462C251.512 33.9069 251.447 33.6785 251.382 33.4391L251.284 33.2216C251.23 33.091 251.175 32.9496 251.121 32.8191C250.947 32.384 250.795 31.938 250.665 31.4811C250.556 31.2635 250.458 31.0351 250.371 30.8067C250.349 30.5565 250.338 30.3063 250.349 30.067C250.23 29.3816 250.175 28.6854 250.175 27.9675C250.132 27.7282 250.099 27.4997 250.078 27.2604C250.121 27.0211 250.175 26.8036 250.241 26.5751C250.317 25.8245 250.447 25.0957 250.643 24.3886C250.665 24.182 250.686 23.9644 250.73 23.7577C250.817 23.5619 250.915 23.3879 251.023 23.2138C251.306 22.4741 251.654 21.767 252.056 21.0926C252.121 20.9186 252.197 20.7445 252.284 20.5705C252.404 20.429 252.534 20.2985 252.665 20.1788C253.154 19.5044 253.708 18.8735 254.317 18.3078C254.415 18.1882 254.513 18.0576 254.621 17.938C254.752 17.851 254.872 17.7748 255.002 17.7095C255.698 17.1548 256.459 16.6652 257.263 16.2628C257.361 16.1866 257.459 16.1322 257.557 16.067C257.665 16.0343 257.774 16.0017 257.872 15.9799C258.513 15.708 259.176 15.4795 259.872 15.3164C260.079 15.2294 260.285 15.1641 260.492 15.0988C260.633 15.0879 260.763 15.0879 260.905 15.0879H261.133L261.111 15.1097ZM262.731 14.9248C262.514 14.9248 262.285 14.9248 262.057 14.9356C261.133 14.9792 260.122 15.1532 259.285 15.3816C256.774 16.0996 254.85 17.4158 253.35 19.0693C251.404 21.2123 249.762 24.3669 249.98 28.6093C250.186 32.5907 251.882 35.4733 254.024 37.4966C255.98 39.335 258.85 40.9776 262.568 40.9776C262.807 40.9776 263.057 40.9776 263.307 40.9558H263.481L263.525 40.9015L263.644 40.8144L263.742 40.9123C267.438 40.5969 269.993 38.9869 271.993 36.844C273.004 35.767 273.863 34.4182 274.482 32.8844C275.113 31.3288 275.482 29.4469 275.385 27.3257C275.2 23.3226 273.493 20.4508 271.362 18.4166C269.373 16.5238 266.547 14.9248 262.731 14.9248ZM262.351 11.7701H262.361C262.557 11.7593 262.753 11.7484 262.948 11.7484C265.188 11.7484 267.319 12.3576 268.895 13.0755C272.526 14.7181 275.167 17.3397 276.83 20.9621C277.678 22.8004 278.2 24.8999 278.309 27.4454C278.418 30.0343 277.809 32.2534 277.037 34.1136C275.472 37.8339 272.852 40.5425 269.34 42.2503C267.536 43.1314 265.449 43.6753 263.025 43.7624C262.851 43.7624 262.688 43.7624 262.525 43.7624C260.253 43.7624 258.209 43.2076 256.513 42.4679C252.893 40.8579 250.251 38.2146 248.556 34.6031C247.719 32.83 247.055 30.6217 247.055 28.1416C247.055 22.7896 248.958 19.3848 251.447 16.6109C252.665 15.2511 254.241 14.1198 256.002 13.2604C257.741 12.4228 259.829 11.7484 262.307 11.7484H262.34L262.351 11.7701ZM261.329 -0.0107422H261.307C260.84 0.478768 260.676 1.29462 260.916 2.12135C261.003 2.43681 261.133 2.73052 261.133 3.02422C261.133 4.01412 260.307 4.3731 260.166 5.22158C259.992 6.21148 260.785 6.67923 261.242 7.27753C261.796 8.01723 261.611 8.99625 261.242 9.70332C260.883 10.3995 260.231 10.8999 259.992 11.6179C259.763 11.6722 259.535 11.7266 259.263 11.7484C258.144 8.43059 257.035 5.10192 255.893 1.80589C256.426 5.29773 256.959 8.78957 257.502 12.2705C257.23 12.3684 256.98 12.4663 256.709 12.5642C255.067 9.45313 253.426 6.35289 251.762 3.27442C252.85 6.6466 253.958 9.98615 255.045 13.3583C254.806 13.5433 254.535 13.6738 254.274 13.837C252.089 11.0957 249.936 8.19128 247.762 5.51529C249.436 8.64816 251.088 11.7919 252.73 14.9465C252.371 15.2511 252.034 15.5666 251.676 15.8712C250.36 14.6528 250.023 12.5751 247.784 12.3793C247.479 12.3576 247.142 12.3793 246.773 12.3358C246.012 12.227 245.881 11.2698 245.566 10.7367C245.338 10.356 245.066 10.0623 244.642 9.85561C244.218 9.63805 243.772 9.57279 243.392 9.31171C243.109 9.11591 242.892 8.9201 242.696 8.66991C242.642 8.60464 242.609 8.48499 242.501 8.44147C242.555 9.03976 242.718 9.44225 243.033 9.80122C243.338 10.1493 243.783 10.2907 244.153 10.5736C244.588 10.8999 244.74 11.335 244.816 12.0203C244.87 12.5098 245.023 13.0102 245.294 13.2822C245.729 13.7173 246.349 13.7064 247.142 13.7826C248.175 13.8805 248.643 14.6855 248.86 15.5883C249.088 16.5456 248.958 17.7095 249.545 18.4601C249.436 18.5907 249.393 18.7756 249.24 18.8626C246.088 17.2853 242.859 15.6536 239.718 14.1416C242.588 16.2954 245.49 18.4057 248.338 20.5922C248.208 20.788 248.164 21.0708 248.001 21.2231C244.588 20.2224 241.153 19.1346 237.772 18.1664C240.99 19.7872 244.186 21.4298 247.382 23.0724C247.284 23.3117 247.262 23.6381 247.132 23.8665C243.599 23.4531 239.979 23.0071 236.467 22.6482C239.935 23.6924 243.392 24.7367 246.827 25.8137C246.74 26.1944 246.773 26.6948 246.697 27.0755C246.523 27.0973 246.349 27.1081 246.186 27.1081C245.675 27.1081 245.207 27.032 244.762 26.945C244.305 26.8688 243.859 26.7927 243.392 26.7927C243.272 26.7927 243.142 26.7927 243.022 26.8036C242.381 26.8688 241.957 27.0864 241.577 27.391C241.174 27.7064 240.935 28.1524 240.5 28.3917C240.37 28.4679 240.229 28.4896 240.087 28.4896C239.718 28.4896 239.326 28.283 238.978 28.1633C238.728 28.0763 238.468 28.0219 238.185 28.0219C238.033 28.0219 237.881 28.0436 237.728 28.0763C237.337 28.1633 237.054 28.3591 236.717 28.5332C236.37 28.7072 235.946 28.7942 235.511 28.7942C235.315 28.7942 235.119 28.7725 234.935 28.7398V28.7616C235.282 29.0879 235.685 29.2729 236.217 29.3055H236.326C236.826 29.3055 237.185 29.1097 237.598 29.0335C237.696 29.0118 237.794 29.0118 237.881 29.0118C238.381 29.0118 238.728 29.2729 239.076 29.5339C239.413 29.795 239.761 30.0561 240.261 30.0561H240.435C241.077 29.9691 241.446 29.4687 241.914 29.0444C242.229 28.7616 242.653 28.6202 243.109 28.6202C243.338 28.6202 243.566 28.6528 243.783 28.7398C245.033 29.175 245.479 30.2519 246.947 30.5238C246.947 30.6979 247.001 30.8175 247.012 30.9698C243.62 32.199 240.185 33.3956 236.804 34.6357C240.392 34.0701 243.925 33.4609 247.512 32.8952C247.556 33.1237 247.653 33.3086 247.708 33.5262C244.533 35.3102 241.348 37.0942 238.185 38.8781C241.631 37.7142 245.055 36.5067 248.501 35.3319C248.61 35.5604 248.751 35.767 248.849 36.0172C246.055 38.3451 243.131 40.6621 240.403 42.9792C243.566 41.1952 246.751 39.4329 249.925 37.6598C250.088 37.8774 250.273 38.0623 250.404 38.3125C249.23 39.8463 247.088 40.0747 246.816 42.4026C246.773 42.7181 246.827 43.0662 246.773 43.4795C246.675 44.2628 245.718 44.3933 245.197 44.7196C244.805 44.959 244.555 45.22 244.338 45.666C244.142 46.0903 244.055 46.5471 243.783 46.9279C243.588 47.2107 243.381 47.4609 243.142 47.6567L242.946 47.8416C243.533 47.8199 243.914 47.6132 244.251 47.3195C244.794 46.8409 244.936 46.0359 245.544 45.7095C245.914 45.5137 246.36 45.5246 246.795 45.4376C247.697 45.2635 248.077 44.7088 248.153 43.6971C248.186 43.2729 248.164 42.816 248.414 42.3917C248.795 41.7391 249.556 41.4236 250.393 41.3039C250.849 41.2387 251.339 41.2822 251.773 41.1734C252.186 41.0646 252.491 40.8797 252.828 40.7057C253.056 40.8797 253.328 41.0211 253.513 41.2495C251.947 44.5673 250.328 47.9504 248.827 51.2464C250.936 48.2332 253.045 45.22 255.176 42.2503C255.35 42.3809 255.6 42.4461 255.774 42.5875C254.763 46.0903 253.719 49.6691 252.784 53.1719C254.371 49.8758 255.948 46.5798 257.557 43.3055C257.807 43.3925 258.068 43.4578 258.307 43.5557C257.937 47.1889 257.491 50.844 257.165 54.4555C258.165 50.9527 259.144 47.4174 260.198 43.9691C260.557 44.0452 260.959 44.0561 261.318 44.1213C261.416 45.6225 260.894 46.6124 261.1 47.9178C261.198 48.5378 261.448 48.9512 261.764 49.321C262.122 49.7453 262.764 50.0825 262.753 50.7678C262.742 51.3987 262.296 51.91 262.296 52.5953C262.296 53.2045 262.579 53.6396 262.829 54.1509C263.09 54.673 263.144 55.3801 263.046 55.9784H263.068C263.383 55.5433 263.601 55.1734 263.601 54.5534C263.601 54.1291 263.459 53.781 263.351 53.4438C262.938 52.1058 264.296 51.6489 264.275 50.5067C264.264 49.6147 263.525 49.2014 263.133 48.6248C262.546 47.7655 262.938 46.7103 263.394 46.0032C263.84 45.3288 264.394 44.861 264.59 44.0343C264.84 43.9908 265.101 43.9582 265.362 43.9255C266.525 47.3412 267.688 50.7678 268.884 54.1618C268.319 50.6046 267.742 47.0584 267.188 43.4904C267.427 43.4034 267.688 43.3381 267.916 43.2402C269.623 46.384 271.308 49.5495 273.015 52.6932C271.895 49.2993 270.765 45.9271 269.656 42.5223C269.917 42.3917 270.188 42.2503 270.438 42.0872C272.623 44.8284 274.808 47.7111 276.993 50.3871C275.319 47.2977 273.656 44.1975 272.026 41.0755C272.406 40.7709 272.776 40.4772 273.145 40.1617C273.863 40.945 274.232 41.8478 274.928 42.6311C275.45 43.2185 276.156 43.5448 277.146 43.5774C277.439 43.5883 277.809 43.5557 278.091 43.6971C278.635 43.9582 278.722 44.7958 278.994 45.2744C279.211 45.6443 279.515 45.9271 279.918 46.1338C280.363 46.3622 280.798 46.4275 281.146 46.6777C281.494 46.9279 281.701 47.2107 282.027 47.5806C281.983 46.9605 281.82 46.558 281.516 46.199C281.222 45.8401 280.787 45.6878 280.418 45.405C280.037 45.1221 279.831 44.7305 279.776 44.1649C279.722 43.5339 279.689 43.0771 279.342 42.6963C279.048 42.37 278.581 42.2286 278.091 42.1742C277.57 42.1089 277.091 42.1307 276.656 41.837C276.146 41.478 275.874 40.8144 275.754 40.0747C275.635 39.3241 275.722 38.4321 275.363 37.7686C275.493 37.5619 275.635 37.377 275.776 37.1812C278.852 38.6932 281.972 40.2597 285.038 41.7064C283.636 40.7057 282.266 39.6831 280.874 38.6497C279.494 37.6272 278.081 36.6482 276.743 35.5712C276.885 35.321 276.983 35.0273 277.167 34.8098C280.429 35.7453 283.701 36.7678 286.929 37.6598C283.875 36.1478 280.842 34.6248 277.82 33.0693C277.928 32.7973 277.972 32.4601 278.113 32.2099C281.494 32.558 284.897 33.004 288.245 33.2977C284.983 32.3296 281.701 31.3723 278.483 30.3607C278.559 29.8276 278.602 29.2837 278.657 28.729C279.766 28.7834 280.57 29.0879 281.472 29.0879C281.657 29.0879 281.864 29.0771 282.07 29.0444C282.603 28.9574 283.027 28.7181 283.364 28.4353C283.69 28.1633 283.983 27.6956 284.375 27.5106C284.505 27.4454 284.646 27.4236 284.777 27.4236C285.31 27.4236 285.81 27.8696 286.397 27.924H286.658C287.245 27.9349 287.636 27.7173 288.049 27.4997C288.408 27.3039 288.853 27.1843 289.332 27.1843C289.527 27.1843 289.723 27.206 289.919 27.2496V27.2278C289.527 26.9015 289.136 26.6513 288.506 26.6513H288.299C287.756 26.6948 287.386 26.9341 286.94 26.9341C286.788 26.9341 286.636 26.9015 286.451 26.8362C285.994 26.6621 285.56 26.1291 285.049 25.9551C284.875 25.9007 284.712 25.868 284.57 25.868C283.516 25.868 283.048 27.1843 282.016 27.2822H281.787H281.57C280.233 27.1408 279.668 25.9116 278.537 25.4982C278.505 25.1936 278.439 24.9217 278.407 24.6171C281.559 23.4966 284.69 22.3544 287.799 21.2014C284.505 21.7344 281.266 22.3218 277.961 22.8548C277.863 22.5503 277.754 22.2457 277.657 21.9302C280.592 20.2876 283.494 18.6233 286.408 16.959C283.244 18.0576 280.092 19.1781 276.928 20.2876C276.765 19.9613 276.58 19.6567 276.428 19.3304C278.994 17.1765 281.679 15.0118 284.19 12.8688C281.277 14.5332 278.352 16.1757 275.406 17.8183C275.102 17.4267 274.808 17.046 274.482 16.687C275.298 16.0778 276.069 15.7297 276.776 15.0118C277.309 14.4679 277.58 13.8261 277.635 12.8688C277.646 12.5751 277.602 12.227 277.722 11.9442C277.961 11.3568 278.907 11.2262 279.374 10.9217C279.722 10.6932 279.994 10.3995 280.189 9.97527C280.396 9.52927 280.472 9.11591 280.711 8.75694C280.896 8.49586 281.146 8.28918 281.374 8.10425L281.559 7.93021C280.961 7.93021 280.581 8.13689 280.244 8.43059C279.896 8.7243 279.755 9.13767 279.494 9.5184C279.255 9.85561 278.939 10.0297 278.548 10.1276C278.081 10.2472 277.624 10.182 277.2 10.356C276.515 10.6388 276.309 11.3459 276.265 12.2597C276.178 13.6194 275.243 14.1416 274.015 14.2938C273.417 14.37 272.754 14.3156 272.167 14.5658C271.895 14.3809 271.623 14.1959 271.373 14.0001C272.797 10.9108 274.298 7.77791 275.667 4.71031C273.711 7.50596 271.786 10.3342 269.797 13.0973C269.536 12.945 269.232 12.8471 268.982 12.6839C269.884 9.37698 270.862 6.01568 271.732 2.73052C270.264 5.85251 268.786 8.98537 267.264 12.0639C266.949 11.9659 266.612 11.8898 266.297 11.7919C266.645 8.3762 267.047 4.89524 267.329 1.5013C266.395 4.84085 265.481 8.21303 264.492 11.4982C264.079 11.422 263.579 11.4329 263.133 11.3894C263.199 10.0841 263.557 9.05064 263.329 7.93021C263.22 7.39718 262.981 7.02733 262.688 6.69011C262.416 6.36377 261.992 6.08094 261.785 5.70021C261.492 5.15631 261.883 4.57978 262.024 4.04676C262.155 3.579 262.133 3.07861 261.981 2.62174C261.84 2.20837 261.579 1.90379 261.448 1.51218C261.296 1.07706 261.242 0.478768 261.34 0.000135823" fill="white"/>
<path d="M262.35 38.421L262.187 38.5298L262.219 38.6059L262.35 38.508V38.421ZM263.752 37.0177C263.513 37.3549 263.241 37.6595 262.937 37.9315L262.85 37.8553V37.9532L262.882 37.9859L262.839 38.0185V38.1273L262.937 38.0294L263.165 38.2034L263.197 38.1382L263.002 37.9859C263.208 37.7901 263.404 37.5834 263.589 37.3658C263.643 37.2462 263.698 37.1374 263.752 37.0286M261.665 36.6805C261.567 36.7784 261.469 36.8654 261.382 36.9416L261.415 37.0068C261.513 36.9307 261.61 36.8437 261.708 36.7566C261.828 36.9198 261.958 37.083 262.1 37.2462L262.143 37.3005L262.23 37.3985V37.2788L262.197 37.257C262.078 37.1156 261.958 36.9633 261.839 36.8219L261.763 36.7131L261.784 36.6914H261.654L261.665 36.6805ZM263.98 36.5608H263.948L263.969 36.5826V36.5608H263.98ZM271.959 29.7621C271.785 29.8926 271.611 30.0232 271.438 30.1319C271.242 30.2516 271.035 30.3713 270.829 30.4692C270.764 30.3604 270.698 30.2516 270.633 30.1537L270.611 30.2516L270.774 30.5018L270.514 30.6214L270.481 30.7193C270.6 30.6758 270.709 30.6323 270.818 30.5779C270.883 30.6976 270.948 30.8173 271.014 30.9369C271.209 31.3285 271.361 31.7419 271.47 32.1661C271.166 32.3075 270.861 32.4272 270.535 32.5251C270.318 32.5904 270.09 32.6448 269.861 32.6883C269.829 32.5795 269.807 32.4707 269.763 32.3728L269.709 32.4598L269.785 32.6991L269.546 32.7318L269.524 32.7753L269.633 32.8079L269.807 32.7862L269.829 32.8514L269.905 32.8732L269.883 32.7753C270.111 32.7318 270.34 32.6774 270.557 32.623C270.872 32.5251 271.187 32.4163 271.492 32.264C271.514 32.3837 271.546 32.5142 271.579 32.6448L271.644 32.6121C271.622 32.4816 271.59 32.3619 271.557 32.2314C271.84 32.09 272.122 31.9268 272.383 31.7528L272.416 31.6331C272.133 31.8289 271.84 32.0138 271.535 32.1552C271.427 31.731 271.264 31.3285 271.068 30.926C271.014 30.8064 270.948 30.6867 270.883 30.5671C271.09 30.4692 271.296 30.3495 271.492 30.2298C271.677 30.1102 271.851 29.9905 272.025 29.8491L271.97 29.7947L271.959 29.7621ZM262.958 40.8141C262.458 40.7489 261.969 40.6292 261.491 40.4443C261.676 40.4117 261.86 40.3573 262.034 40.3029H262.045C262.371 40.205 262.697 40.0744 263.013 39.9221C263.513 40.1288 264.035 40.2702 264.567 40.3355C264.111 40.5531 263.621 40.7054 263.121 40.8033H263.034H262.947L262.958 40.8141ZM258.74 39.672C259.099 39.672 259.469 39.6393 259.828 39.5741C260.252 39.9113 260.719 40.1941 261.219 40.4117C260.904 40.4661 260.578 40.4878 260.252 40.4878C260.088 40.4878 259.925 40.4878 259.762 40.466H259.61L259.469 40.3899C259.023 40.1941 258.61 39.9439 258.219 39.6502C258.36 39.6502 258.501 39.672 258.632 39.672H258.74ZM266.85 39.4C267.154 39.4 267.47 39.3783 267.785 39.3239C267.372 39.6828 266.926 39.9765 266.437 40.2267C266.089 40.2811 265.741 40.3138 265.383 40.3138C265.198 40.3138 265.013 40.3138 264.839 40.292C265.317 40.0418 265.774 39.7263 266.165 39.3674C266.383 39.3891 266.611 39.4 266.839 39.4M264.687 40.2811C264.143 40.2159 263.6 40.0853 263.089 39.8786C263.578 39.6284 264.045 39.313 264.458 38.9323C264.969 39.1389 265.502 39.2912 266.056 39.3565C265.643 39.7263 265.187 40.0309 264.687 40.2811ZM257.393 38.3883H257.501C257.86 38.3883 258.23 38.3557 258.577 38.2904C258.86 38.6821 259.186 39.041 259.545 39.3565L259.719 39.4979C259.512 39.5305 259.306 39.5523 259.088 39.5741C258.958 39.5741 258.838 39.5849 258.708 39.5849C258.501 39.5849 258.284 39.5849 258.077 39.5523C257.643 39.2042 257.251 38.8017 256.925 38.3557C257.077 38.3666 257.219 38.3775 257.371 38.3775L257.393 38.3883ZM256.218 38.9866C255.871 38.6929 255.555 38.3448 255.273 37.975C255.773 38.1708 256.305 38.2904 256.838 38.3557C257.153 38.8017 257.534 39.2042 257.947 39.5523C257.49 39.4979 257.045 39.3783 256.61 39.226L256.392 39.1389L256.208 38.9866H256.218ZM267.97 38.0403C268.296 38.0403 268.622 38.0185 268.948 37.9641C268.644 38.4319 268.285 38.867 267.872 39.2368C267.524 39.2912 267.176 39.3239 266.828 39.3239C266.633 39.3239 266.437 39.3239 266.23 39.3021C266.633 38.9214 266.991 38.4862 267.296 38.0076C267.513 38.0294 267.741 38.0403 267.959 38.0403M259.621 39.3239C259.262 39.0193 258.947 38.6712 258.664 38.2796L258.871 38.2361L259.045 38.1925L259.284 38.1164L259.458 38.062L259.708 37.975L259.86 37.9206C259.991 37.8662 260.121 37.8118 260.252 37.7465C260.578 38.2034 260.98 38.6168 261.404 38.9758C260.904 39.2151 260.371 39.4 259.828 39.4979L259.806 39.4762L259.632 39.3239H259.621ZM266.133 39.2912C265.578 39.226 265.035 39.0845 264.513 38.8779C264.937 38.4971 265.296 38.0511 265.589 37.5725C266.111 37.7901 266.654 37.9315 267.209 37.9967C266.904 38.4645 266.546 38.9105 266.133 39.2912ZM268.013 39.2151C268.405 38.8343 268.752 38.4101 269.046 37.9424C269.579 37.8553 270.09 37.6813 270.579 37.4637C270.285 37.9206 269.926 38.334 269.535 38.7038C269.046 38.9431 268.535 39.1172 268.013 39.2151ZM256.664 36.811H256.762C256.871 36.811 256.99 36.8002 257.11 36.7893H257.262C257.425 36.7566 257.588 36.7458 257.751 36.7131C257.806 36.8437 257.86 36.9851 257.914 37.1156L257.98 37.2462L258.11 37.5072L258.197 37.6595L258.327 37.888L258.436 38.0511L258.556 38.2252C258.219 38.2796 257.871 38.3122 257.534 38.3122C257.349 38.3122 257.142 38.3122 256.958 38.2796H256.903L256.882 38.2469C256.566 37.8009 256.305 37.3005 256.11 36.7784C256.273 36.7893 256.447 36.8002 256.632 36.8002H256.697L256.664 36.811ZM256.773 38.2687C256.229 38.2034 255.686 38.062 255.186 37.8553C254.86 37.3984 254.588 36.8981 254.392 36.3759C254.903 36.5717 255.447 36.7131 255.99 36.7675C256.186 37.2897 256.447 37.8009 256.773 38.2578M268.709 36.3977C269.035 36.3977 269.372 36.3759 269.698 36.3215C269.535 36.8654 269.296 37.3876 269.002 37.8662C268.655 37.9315 268.307 37.9532 267.959 37.9532C267.752 37.9532 267.546 37.9532 267.339 37.9206C267.633 37.4311 267.872 36.9089 268.035 36.365C268.263 36.3868 268.492 36.3977 268.709 36.3977ZM258.621 38.2034C258.545 38.0838 258.458 37.9641 258.393 37.8444L258.317 37.7248L258.175 37.4746L258.088 37.3005L257.98 37.083L257.903 36.8981L257.827 36.7023C258.251 36.6261 258.664 36.4956 259.056 36.3324C259.175 36.278 259.295 36.2236 259.425 36.1692C259.512 36.3977 259.599 36.6152 259.697 36.8219C259.849 37.1265 260.023 37.4202 260.208 37.6922L259.991 37.7901L259.828 37.8662C259.741 37.8988 259.643 37.9424 259.545 37.975L259.436 38.0185C259.338 38.0511 259.23 38.0838 259.121 38.1164L259.034 38.1382C258.914 38.1708 258.795 38.1925 258.675 38.2252H258.621V38.2034ZM267.263 37.9206C266.709 37.8553 266.165 37.7139 265.643 37.5072C265.872 37.1374 266.057 36.7349 266.209 36.3215C266.252 36.2019 266.296 36.0713 266.339 35.9408C266.557 36.0278 266.774 36.104 266.991 36.1692C267.307 36.2671 267.633 36.3324 267.959 36.3759C267.883 36.6479 267.774 36.9198 267.654 37.1809C267.535 37.442 267.404 37.6922 267.252 37.9315M269.089 37.8662C269.35 37.4311 269.557 36.9742 269.72 36.4847L269.774 36.3324C270.318 36.2345 270.84 36.0605 271.351 35.832C271.187 36.365 270.948 36.8872 270.655 37.3658H270.644C270.144 37.6051 269.633 37.7792 269.089 37.8771M253.49 36.7566C253.251 36.3868 253.044 35.9843 252.881 35.5709C252.979 35.6471 253.077 35.7124 253.186 35.7885L253.218 35.8103C253.327 35.8864 253.436 35.9517 253.544 36.0061H253.566C253.675 36.0822 253.783 36.1366 253.892 36.191L253.925 36.2127C254.044 36.2671 254.175 36.3324 254.305 36.3759C254.501 36.8872 254.751 37.3876 255.055 37.8336C254.653 37.6595 254.262 37.442 253.903 37.1809L253.675 37.0068L253.501 36.7566H253.49ZM270.785 37.3005C271.068 36.8328 271.285 36.3215 271.448 35.7885C271.938 35.5492 272.394 35.2446 272.807 34.8965C272.633 35.4187 272.405 35.919 272.112 36.3759C271.709 36.7349 271.264 37.0504 270.785 37.3005ZM255.958 36.7131L255.729 36.6805L255.555 36.6479L255.284 36.5935L255.142 36.5608C255.001 36.5282 254.871 36.4847 254.74 36.4412H254.718C254.588 36.3868 254.468 36.3433 254.349 36.2998C254.153 35.7667 254.033 35.2011 253.979 34.6354C254.501 34.8421 255.044 34.9727 255.599 35.0379C255.642 35.6036 255.762 36.1692 255.958 36.7023M268.981 34.6354C269.307 34.6354 269.644 34.6137 269.97 34.5484C269.959 35.1249 269.872 35.7015 269.709 36.2454C269.383 36.2998 269.035 36.3324 268.698 36.3324C268.492 36.3324 268.296 36.3324 268.089 36.2998H268.046C268.165 35.8755 268.242 35.4404 268.274 35.0053C268.285 34.8748 268.296 34.7442 268.296 34.5919H268.318C268.535 34.6137 268.763 34.6246 268.981 34.6246M269.796 36.2345C269.948 35.6797 270.035 35.1141 270.046 34.5375C270.6 34.4396 271.133 34.2765 271.644 34.0263C271.633 34.6028 271.535 35.1576 271.383 35.7124C270.883 35.9517 270.35 36.1257 269.796 36.2345ZM254.251 36.2345L254.066 36.1475L253.903 36.0822L253.664 35.9517L253.533 35.8755C253.436 35.8211 253.349 35.7559 253.251 35.6906L253.164 35.6362C253.055 35.5601 252.936 35.473 252.827 35.386C252.642 34.853 252.512 34.2982 252.457 33.7434C252.903 34.0807 253.381 34.3526 253.892 34.5702C253.936 35.1358 254.055 35.6906 254.251 36.2236M271.47 35.6471C271.622 35.1032 271.709 34.5375 271.72 33.9719C272.22 33.7217 272.688 33.4171 273.101 33.0472C273.079 33.6129 272.992 34.1677 272.84 34.7116C272.427 35.0814 271.97 35.3969 271.47 35.6471ZM251.511 33.8413C251.381 33.4062 251.283 32.9602 251.24 32.5142C251.566 32.9493 251.957 33.341 252.381 33.6782C252.425 34.2329 252.544 34.766 252.718 35.2881C252.37 34.9944 252.055 34.6789 251.772 34.32L251.609 34.1024L251.511 33.8305V33.8413ZM253.892 34.4831C253.381 34.2656 252.892 33.9828 252.457 33.6347V33.5585L252.446 33.4171C252.425 32.9167 252.446 32.4163 252.544 31.9268C252.99 32.2749 253.479 32.5577 254.001 32.7644C253.892 33.3301 253.86 33.9066 253.903 34.4723M272.949 34.6028C273.09 34.0698 273.177 33.5259 273.188 32.9711C273.59 32.6012 273.949 32.1879 274.253 31.731C274.231 32.2858 274.144 32.8297 273.981 33.3518C273.688 33.8087 273.34 34.2329 272.949 34.6028ZM252.381 33.5585C251.946 33.2104 251.566 32.8079 251.24 32.3511C251.229 32.177 251.218 31.9921 251.218 31.818C251.218 31.4373 251.251 31.0457 251.316 30.665C251.653 31.111 252.044 31.5243 252.479 31.8615C252.381 32.3728 252.348 32.895 252.37 33.4171V33.5368V33.5476L252.381 33.5585ZM250.381 30.4909C250.37 30.0449 250.392 29.588 250.468 29.142C250.577 29.4357 250.718 29.7186 250.87 29.9796C250.99 30.1863 251.109 30.393 251.251 30.5779C251.174 30.9913 251.131 31.4047 251.131 31.818C251.131 31.9594 251.131 32.1009 251.142 32.2314C250.881 31.8615 250.664 31.4699 250.49 31.0457L250.381 30.7737C250.381 30.6758 250.37 30.5779 250.359 30.48M252.479 31.7745C252.044 31.4264 251.653 31.0131 251.316 30.5562C251.424 29.9905 251.598 29.4466 251.848 28.9354C252.185 29.3922 252.588 29.7947 253.022 30.1537C252.968 30.2625 252.914 30.3821 252.87 30.4909C252.696 30.9043 252.566 31.3394 252.479 31.7745ZM274.318 31.4482C274.318 30.8934 274.253 30.3386 274.123 29.8056C274.405 29.3378 274.644 28.8375 274.818 28.3153C274.949 28.8483 275.003 29.4031 274.992 29.9579C274.84 30.48 274.612 30.9804 274.329 31.4591M251.272 30.4909C250.946 30.034 250.685 29.5336 250.49 29.0115C250.598 28.4567 250.772 27.9128 251.011 27.4124C251.218 27.9346 251.49 28.435 251.816 28.8918C251.566 29.4031 251.381 29.9361 251.272 30.4909ZM274.101 29.7186C273.949 29.1747 273.731 28.6416 273.459 28.163L273.623 27.9019C273.851 27.4995 274.025 27.0752 274.166 26.6401C274.438 27.1296 274.655 27.6518 274.797 28.1957C274.634 28.7287 274.405 29.2508 274.112 29.7295M251.87 28.8157C251.544 28.3588 251.272 27.8476 251.077 27.3145C251.338 26.8141 251.642 26.3355 252.022 25.9113C252.229 26.4443 252.501 26.9556 252.838 27.4124C252.457 27.8367 252.142 28.3044 251.881 28.8157M250.174 27.0208C250.283 26.5748 250.435 26.1288 250.631 25.7155C250.685 26.2702 250.816 26.8033 251.001 27.3254C250.761 27.8258 250.577 28.3479 250.468 28.881C250.316 28.4458 250.218 27.9998 250.153 27.543C250.153 27.4559 250.131 27.3689 250.131 27.271L250.185 27.0208H250.174ZM274.851 28.0651C274.699 27.5321 274.492 27.0208 274.22 26.5422C274.373 26.0092 274.47 25.4653 274.492 24.9105C274.753 25.3891 274.96 25.9004 275.09 26.4334C275.079 26.9882 274.992 27.5321 274.851 28.0542M251.055 27.2166C250.859 26.6836 250.74 26.1288 250.696 25.5741C250.946 25.0628 251.261 24.595 251.631 24.1817C251.685 24.7473 251.816 25.3021 252.011 25.8351C251.642 26.2485 251.316 26.7162 251.066 27.2166M274.177 26.4334C273.894 25.9548 273.546 25.5088 273.144 25.1172C273.307 24.5733 273.394 24.0185 273.416 23.442C273.807 23.8336 274.155 24.2796 274.427 24.7691C274.405 25.3347 274.329 25.9004 274.166 26.4334M252.055 25.759C251.859 25.226 251.74 24.6603 251.685 24.0946C252.066 23.6704 252.49 23.3114 252.968 23.0068C253.022 23.5834 253.153 24.1382 253.349 24.6712C252.87 24.9758 252.435 25.3347 252.055 25.759ZM250.848 23.6269C251.077 23.1918 251.348 22.7784 251.675 22.4086C251.62 22.7675 251.588 23.1265 251.588 23.4964C251.588 23.6813 251.588 23.8771 251.609 24.062C251.251 24.4754 250.935 24.9214 250.685 25.4109C250.653 24.9214 250.674 24.421 250.75 23.9423L250.783 23.7683L250.859 23.616L250.848 23.6269ZM274.427 24.6168C274.144 24.149 273.807 23.7139 273.416 23.3332V23.1918C273.416 22.9525 273.416 22.7131 273.383 22.4629C273.351 22.2019 273.307 21.9408 273.253 21.6797C273.633 22.0713 273.96 22.5065 274.231 22.9851C274.362 23.5181 274.427 24.062 274.427 24.6168ZM251.685 23.9859C251.675 23.8227 251.664 23.6595 251.664 23.4964C251.664 23.0939 251.707 22.6914 251.772 22.2998C252.153 21.8864 252.577 21.5274 253.033 21.2228C252.968 21.5927 252.936 21.9734 252.936 22.3542C252.936 22.5391 252.936 22.7349 252.957 22.9198C252.49 23.2135 252.055 23.5725 251.675 23.9859M273.34 23.257C272.938 22.8763 272.481 22.5391 271.992 22.278C271.992 21.7885 271.959 21.299 271.861 20.8204L271.818 20.6028C272.296 20.8748 272.742 21.2011 273.144 21.5927C273.22 21.8973 273.275 22.2127 273.307 22.5282C273.329 22.7458 273.34 22.9742 273.34 23.2026V23.2679V23.257ZM253.033 22.8654C253.022 22.6914 253.012 22.5173 253.012 22.3542C253.012 21.9517 253.044 21.5601 253.12 21.1685C253.599 20.8747 254.11 20.6354 254.642 20.4723C254.577 20.853 254.544 21.2337 254.544 21.6145C254.544 21.7994 254.544 21.9952 254.566 22.191C254.023 22.3433 253.512 22.5717 253.033 22.8654ZM254.642 22.1692C254.62 21.9843 254.62 21.7994 254.62 21.6145C254.62 21.2228 254.653 20.8312 254.718 20.4505C255.131 20.3308 255.555 20.2656 255.979 20.2329C255.914 20.6137 255.881 20.9944 255.881 21.3751C255.881 21.5601 255.881 21.7559 255.903 21.9408C255.805 21.9517 255.708 21.9626 255.599 21.9734H255.566C255.414 22.0061 255.251 22.0278 255.11 22.0605L254.925 22.104C254.827 22.1257 254.729 22.1475 254.642 22.1692ZM271.927 22.2345C271.427 21.9734 270.905 21.7776 270.35 21.658V21.5057C270.35 20.9835 270.296 20.4614 270.177 19.9501C270.72 20.0698 271.242 20.2765 271.731 20.5375C271.753 20.6354 271.775 20.7225 271.796 20.8204C271.894 21.2772 271.938 21.7559 271.927 22.2345ZM268.611 21.5274V21.3751C268.611 21.1902 268.611 20.9944 268.589 20.8095V20.7877V20.766C268.568 20.4505 268.513 20.135 268.437 19.8305C268.568 19.8087 268.698 19.8087 268.829 19.8087C269.22 19.8087 269.611 19.8413 269.992 19.9175L270.1 19.9392V19.9719C270.231 20.4831 270.296 20.9944 270.285 21.5166V21.6471C269.872 21.5601 269.448 21.5166 269.013 21.5166C268.883 21.5166 268.742 21.5166 268.611 21.5274ZM252.381 20.5484C252.729 20.1677 253.12 19.8305 253.555 19.5476C253.327 20.048 253.164 20.5702 253.055 21.1141C252.599 21.4078 252.175 21.7559 251.805 22.1584C251.914 21.6471 252.077 21.1467 252.294 20.6789L252.327 20.6028L252.381 20.5484ZM273.112 21.4404C272.72 21.0597 272.275 20.7442 271.796 20.4831C271.753 20.2982 271.698 20.1133 271.633 19.9284C271.514 19.5911 271.372 19.2539 271.198 18.9493C271.666 19.2213 272.101 19.5476 272.492 19.9284C272.764 20.3961 272.97 20.9074 273.112 21.4404ZM253.142 21.0597C253.262 20.5049 253.436 19.9719 253.675 19.4715C254.142 19.1778 254.653 18.9493 255.175 18.7862C254.936 19.2974 254.762 19.8413 254.653 20.3961C254.12 20.5484 253.609 20.7768 253.131 21.0706M254.729 20.3744C254.838 19.8196 255.023 19.2757 255.262 18.7644C255.664 18.6448 256.088 18.5686 256.512 18.5469C256.273 19.0581 256.088 19.602 255.99 20.1677C255.566 20.2003 255.131 20.2656 254.718 20.3852M256.055 20.1677C256.164 19.602 256.338 19.0581 256.588 18.536C256.708 18.536 256.827 18.536 256.947 18.536C257.382 18.536 257.827 18.5795 258.262 18.6774C258.023 19.1887 257.838 19.7326 257.74 20.2982C257.643 20.2873 257.545 20.2656 257.447 20.2438L257.186 20.2003C256.925 20.1677 256.653 20.1459 256.392 20.1459H256.371C256.273 20.1459 256.175 20.1459 256.077 20.1568M271.709 20.4396C271.22 20.1894 270.698 19.9936 270.155 19.874C270.013 19.3301 269.807 18.7971 269.535 18.3075C269.687 18.3402 269.84 18.3837 269.992 18.4381C270.187 18.5033 270.394 18.5795 270.59 18.6665C270.753 18.7318 270.916 18.8188 271.079 18.9058C271.264 19.2213 271.416 19.5585 271.535 19.9066C271.601 20.0915 271.666 20.2765 271.709 20.4614M267.067 20.0045C267.046 19.9066 267.013 19.8087 266.981 19.7108C266.872 19.3736 266.752 19.0472 266.6 18.7318C266.546 18.623 266.491 18.5251 266.437 18.4163C266.85 18.2967 267.274 18.2205 267.698 18.1879L267.72 18.2205C267.991 18.71 268.198 19.2322 268.339 19.7761C267.915 19.8087 267.491 19.8957 267.078 20.0154L267.067 20.0045ZM268.415 19.7652C268.274 19.2104 268.068 18.6774 267.785 18.177C267.905 18.177 268.024 18.1661 268.144 18.1661C268.557 18.1661 268.981 18.2096 269.394 18.2967H269.437V18.3075C269.72 18.7971 269.926 19.3301 270.068 19.8849C269.666 19.7978 269.252 19.7543 268.839 19.7543H268.818C268.676 19.7543 268.535 19.7543 268.405 19.7652M253.729 19.3627C253.979 18.8732 254.294 18.4163 254.653 18.0138C255.11 17.731 255.599 17.5026 256.11 17.3394C255.805 17.6984 255.534 18.09 255.316 18.5142V18.5251V18.536L255.294 18.5795L255.273 18.623V18.6448V18.6665L255.251 18.6991C254.729 18.8514 254.24 19.069 253.773 19.3518M259.991 19.2213C259.915 19.1778 259.828 19.1343 259.73 19.0799C259.317 18.8732 258.882 18.7209 258.436 18.6121C258.686 18.1009 259.001 17.6222 259.382 17.198C259.925 17.3176 260.447 17.5243 260.947 17.7854C260.578 18.2205 260.262 18.6883 260.012 19.2104L259.991 19.2213ZM255.349 18.6774L255.371 18.6448C255.621 18.1552 255.925 17.6984 256.284 17.2959C256.566 17.2089 256.849 17.1545 257.142 17.111H257.153C257.273 17.0892 257.393 17.0783 257.512 17.0674C257.153 17.4917 256.838 17.9594 256.588 18.4707C256.164 18.4925 255.751 18.5686 255.338 18.6774M256.675 18.4598C256.925 17.9486 257.24 17.4808 257.621 17.0566C257.73 17.0566 257.838 17.0566 257.947 17.0566H257.98C258.088 17.0566 258.208 17.0566 258.317 17.0566C258.632 17.0674 258.947 17.111 259.273 17.1762C258.904 17.6005 258.588 18.0791 258.338 18.5904C258.24 18.5686 258.143 18.5469 258.045 18.536C257.697 18.4816 257.349 18.449 257.001 18.449C256.892 18.449 256.795 18.449 256.686 18.449M264.828 19.0472L264.676 18.7862C264.426 18.3837 264.132 18.0247 263.806 17.6875C264.285 17.3829 264.795 17.1545 265.328 16.9913C265.426 17.0892 265.524 17.198 265.622 17.3068L265.709 17.4155L265.893 17.644L265.98 17.7745L266.143 18.003L266.241 18.1552L266.361 18.3511C265.828 18.5142 265.317 18.7535 264.839 19.0581L264.828 19.0472ZM271.035 18.7644C270.905 18.6991 270.774 18.6339 270.655 18.5795C270.459 18.4925 270.253 18.4163 270.046 18.3511C269.872 18.2967 269.698 18.2531 269.524 18.2096C269.252 17.731 268.916 17.2959 268.535 16.8934C269.057 17.0239 269.557 17.2089 270.035 17.4699C270.427 17.8507 270.764 18.2858 271.035 18.7535M266.426 18.3075C266.154 17.8289 265.828 17.4047 265.459 17.0131L265.415 16.9587C265.817 16.839 266.241 16.7737 266.665 16.7411C267.067 17.1436 267.404 17.5896 267.698 18.0791C267.263 18.1117 266.839 18.1879 266.437 18.3184M267.785 18.0791C267.502 17.5896 267.165 17.1436 266.774 16.7411C266.883 16.7411 266.991 16.7411 267.1 16.7411C267.524 16.7411 267.937 16.7846 268.35 16.8716H268.405V16.8825C268.796 17.2741 269.144 17.7201 269.426 18.1988H269.405C269.002 18.1117 268.589 18.0791 268.176 18.0791H268.144C268.024 18.0791 267.905 18.0791 267.774 18.09M261.871 18.3293C261.61 18.1226 261.339 17.9377 261.045 17.7745C261.415 17.3503 261.85 16.9804 262.328 16.6758C262.817 16.9478 263.274 17.285 263.676 17.6766C263.545 17.7636 263.426 17.8398 263.306 17.9377H263.415C263.415 17.9377 263.176 17.9921 263.034 18.2532C263.252 18.0682 263.491 17.8833 263.73 17.731C264.056 18.0573 264.35 18.4272 264.6 18.8297L264.752 19.0908C264.578 19.2104 264.415 19.3301 264.252 19.4606L264.35 19.4824C264.491 19.3736 264.643 19.2539 264.795 19.156C264.882 19.3301 264.969 19.5041 265.056 19.6782L265.154 19.7108C265.067 19.5041 264.969 19.3083 264.861 19.1125C265.339 18.797 265.85 18.5686 266.383 18.4054L266.459 18.5469L266.546 18.71L266.611 18.8623L266.687 19.0364L266.752 19.2104L266.817 19.3736C266.861 19.4824 266.894 19.5911 266.926 19.7108C266.959 19.8087 266.981 19.9066 267.002 20.0045C266.785 20.0698 266.567 20.1568 266.361 20.2438L266.448 20.2873C266.633 20.2112 266.828 20.135 267.024 20.0698C267.057 20.1894 267.078 20.32 267.1 20.4396V20.4831L267.144 20.7007L267.231 20.7551C267.198 20.5158 267.154 20.2765 267.1 20.0371L267.154 20.0263C267.546 19.9175 267.959 19.8413 268.361 19.8087C268.437 20.1024 268.481 20.3961 268.513 20.7007V20.7877V20.8204C268.535 21.0053 268.535 21.1902 268.535 21.3751V21.5274C268.415 21.5274 268.307 21.5601 268.187 21.5709L268.252 21.6362C268.339 21.6253 268.437 21.6036 268.524 21.6036V21.7232V21.8973L268.579 21.9734L268.6 21.7559V21.6036C268.731 21.6036 268.861 21.5927 269.002 21.5927C269.426 21.5927 269.84 21.6362 270.263 21.7232C270.253 22.0496 270.22 22.365 270.166 22.6805L270.242 22.6587L270.263 22.55C270.307 22.278 270.34 22.0061 270.34 21.7341C270.883 21.8538 271.416 22.0496 271.916 22.3106V22.3433V22.365C271.916 22.4956 271.905 22.6261 271.894 22.7566L271.97 22.7784C271.97 22.6696 271.992 22.5608 271.992 22.4629V22.4521V22.4086V22.3759C272.481 22.637 272.927 22.9742 273.34 23.3658C273.329 23.9315 273.242 24.4971 273.079 25.041V25.3021L273.112 25.1933C273.514 25.5958 273.862 26.0418 274.144 26.5313C273.981 27.0752 273.742 27.5974 273.449 28.076C273.155 27.5865 272.807 27.1405 272.405 26.738C272.677 26.3029 272.905 25.8351 273.068 25.3456L273.025 25.226C272.862 25.7372 272.633 26.2267 272.351 26.6727C272.035 26.379 271.698 26.1071 271.329 25.8786C271.22 25.8134 271.101 25.7481 270.981 25.672C271.101 25.4761 271.22 25.2695 271.329 25.0628V25.041C271.481 24.7473 271.601 24.4427 271.709 24.1273C272.155 24.3775 272.579 24.6821 272.959 25.0302L272.883 24.867C272.525 24.5624 272.144 24.2904 271.731 24.062C271.764 23.9424 271.796 23.8118 271.829 23.6922L271.764 23.6595C271.731 23.7792 271.698 23.9097 271.666 24.0294C271.285 23.8227 270.883 23.6704 270.47 23.5507C270.383 23.529 270.285 23.5072 270.187 23.4746L269.97 23.5399C269.937 23.6378 269.905 23.7248 269.872 23.8227L269.916 23.9206C269.959 23.7901 270.003 23.6595 270.046 23.5399C270.177 23.5725 270.307 23.6051 270.427 23.6378C270.84 23.7574 271.231 23.9206 271.611 24.1164C271.524 24.4101 271.405 24.7038 271.274 24.9866L271.264 25.0193V25.0302V25.0519H271.242C271.144 25.2586 271.024 25.4653 270.905 25.6502C270.785 25.5958 270.666 25.5305 270.546 25.4761L270.568 25.5741C270.666 25.6176 270.764 25.6611 270.861 25.7155C270.807 25.8134 270.742 25.9004 270.677 25.9874L270.698 26.0962C270.774 25.9874 270.85 25.8786 270.927 25.7699H270.937L270.981 25.7916C271.079 25.846 271.177 25.9113 271.274 25.9657C271.644 26.1941 271.981 26.466 272.285 26.7598C272.101 27.0535 271.905 27.3145 271.677 27.5647H271.655L271.622 27.6191L271.481 27.7714L271.546 27.804L271.688 27.6518V27.63L271.72 27.6082C271.938 27.358 272.144 27.0861 272.329 26.8033C272.731 27.2058 273.079 27.6518 273.373 28.1521C273.22 28.3915 273.057 28.6199 272.872 28.8266L272.916 28.881C273.09 28.6743 273.264 28.4458 273.405 28.2174C273.688 28.7069 273.894 29.2399 274.046 29.7947C273.905 30.0123 273.753 30.2298 273.59 30.4256V30.5344C273.764 30.3386 273.927 30.1211 274.068 29.8926C274.199 30.4039 274.264 30.9369 274.264 31.4591V31.5678C273.96 32.0465 273.601 32.4707 273.199 32.8514V32.8188C273.199 32.6556 273.199 32.4925 273.177 32.3184L273.112 32.4163C273.112 32.5469 273.122 32.6774 273.122 32.8079V32.9058C272.699 33.2866 272.231 33.602 271.731 33.8522V33.7978C271.731 33.6673 271.731 33.5368 271.72 33.4171L271.644 33.4389C271.644 33.5585 271.655 33.6782 271.655 33.7978V33.8848C271.144 34.1242 270.611 34.3091 270.057 34.3961V34.3417C270.057 34.1024 270.046 33.8631 270.024 33.6129H269.948C269.981 33.8522 269.992 34.0915 269.992 34.3417V34.407C269.676 34.4614 269.361 34.4831 269.035 34.494H268.992C268.763 34.494 268.535 34.4831 268.307 34.4614V34.1894L268.231 34.2656V34.407V34.4505L268.057 34.4288L267.981 34.494L268.231 34.5375C268.231 34.6789 268.231 34.8204 268.209 34.9509C268.176 35.386 268.089 35.8211 267.97 36.2345C267.644 36.2019 267.318 36.1366 267.002 36.0387C266.785 35.9734 266.567 35.8973 266.35 35.8103L266.393 35.6253L266.307 35.6688L266.285 35.7776L266.198 35.7341L266.111 35.7776L266.263 35.8538C266.23 35.9843 266.176 36.1148 266.143 36.2454C265.991 36.6587 265.806 37.0504 265.578 37.4202C265.274 37.2897 264.969 37.1374 264.687 36.9633H264.676L264.632 37.0177H264.654C264.937 37.2026 265.23 37.3658 265.535 37.4964C265.23 37.975 264.872 38.4101 264.448 38.8017C264.165 38.6821 263.893 38.5406 263.643 38.3883L263.6 38.4536C263.85 38.6059 264.111 38.7473 264.393 38.867C263.98 39.2368 263.513 39.5523 263.013 39.8025C262.915 39.759 262.817 39.7155 262.708 39.672H262.524C262.654 39.7263 262.784 39.7916 262.915 39.8569C262.621 39.9874 262.328 40.118 262.013 40.205C261.795 40.2702 261.567 40.3246 261.349 40.3681C260.839 40.1506 260.36 39.8678 259.915 39.5305C260.458 39.4218 260.98 39.2477 261.48 39.0084L261.534 39.0519C261.773 39.2368 262.034 39.4 262.295 39.5414L262.197 39.4C262.002 39.2803 261.806 39.1607 261.61 39.0193L261.436 38.8887C261.534 38.8452 261.632 38.7908 261.719 38.7364L261.676 38.6712C261.578 38.7256 261.469 38.78 261.371 38.8343C260.936 38.4754 260.534 38.062 260.208 37.6051C260.371 37.5181 260.545 37.4311 260.708 37.3223L260.665 37.257L260.502 37.3441C260.393 37.4093 260.284 37.4855 260.165 37.5399C259.969 37.2679 259.795 36.9742 259.643 36.6696C259.545 36.4738 259.469 36.278 259.382 36.0713L259.219 36.0061C259.11 36.0605 259.001 36.104 258.904 36.1475C258.512 36.3106 258.099 36.4412 257.675 36.5173C257.556 36.2019 257.469 35.8755 257.403 35.5383C257.371 35.3534 257.338 35.1467 257.316 34.9509L257.229 34.8965C257.251 35.1141 257.284 35.3425 257.316 35.5601C257.382 35.8864 257.469 36.2236 257.577 36.5391H257.469C257.349 36.5717 257.229 36.5935 257.11 36.6044H256.936C256.827 36.6261 256.729 36.6261 256.621 36.6261H256.447C256.284 36.6261 256.121 36.6261 255.958 36.6044H255.914C255.718 36.0605 255.599 35.4948 255.555 34.9291C255.729 34.94 255.903 34.9509 256.077 34.9618H256.132C256.36 34.9618 256.599 34.9509 256.827 34.9183C256.947 34.9074 257.066 34.8856 257.186 34.8639L257.099 34.7986C257.001 34.8095 256.914 34.8312 256.816 34.8421C256.599 34.8639 256.382 34.8748 256.164 34.8748H256.121C255.925 34.8748 255.729 34.8748 255.534 34.8421C255.523 34.6789 255.512 34.5158 255.512 34.3526V34.2656C255.512 34.1133 255.523 33.961 255.534 33.8087C255.544 33.6455 255.566 33.4824 255.588 33.3301H255.512C255.49 33.4824 255.468 33.6455 255.458 33.8087C255.447 33.9936 255.436 34.1677 255.436 34.3526C255.436 34.5158 255.436 34.6681 255.447 34.8312C254.892 34.766 254.338 34.6354 253.827 34.4179C253.805 34.0589 253.805 33.689 253.827 33.3301C253.849 33.1125 253.87 32.9058 253.914 32.6991C254.044 32.7535 254.175 32.7971 254.305 32.8406L254.338 32.7644C254.197 32.7209 254.066 32.6774 253.925 32.623C253.99 32.2858 254.077 31.9594 254.197 31.644C254.251 31.4917 254.327 31.3176 254.403 31.1545L254.36 31.0566C254.273 31.2415 254.197 31.4264 254.131 31.6113C254.012 31.9268 253.925 32.264 253.86 32.5904C253.338 32.3728 252.849 32.09 252.403 31.7419C252.49 31.285 252.631 30.839 252.805 30.4039C252.849 30.306 252.892 30.219 252.936 30.1211C253.283 30.3821 253.642 30.6106 254.033 30.7955L254.305 30.9152L254.273 30.8173L254.077 30.7302C253.686 30.5453 253.316 30.306 252.979 30.0449C253.131 29.7403 253.305 29.4466 253.501 29.1747C253.599 29.0333 253.707 28.9027 253.816 28.7613V28.6525C253.686 28.8048 253.555 28.968 253.436 29.1203C253.24 29.3922 253.066 29.6859 252.914 29.9796C252.479 29.6315 252.077 29.2182 251.74 28.7613C251.99 28.25 252.316 27.7714 252.696 27.3472C252.957 27.6953 253.251 28.0216 253.566 28.3044L253.805 28.5002V28.3915L253.62 28.25C253.294 27.9563 253.001 27.6409 252.74 27.2928C252.968 27.0426 253.207 26.8141 253.468 26.6075C253.609 26.4987 253.751 26.3899 253.903 26.292L253.925 26.1941C253.751 26.3029 253.588 26.4225 253.425 26.5531C253.164 26.7598 252.914 26.9882 252.696 27.2384C252.359 26.7815 252.088 26.2702 251.892 25.7372C252.272 25.3239 252.707 24.9431 253.175 24.6494C253.338 25.0628 253.533 25.4544 253.762 25.8242L253.946 26.0853L253.968 25.9874L253.827 25.7807C253.599 25.4109 253.392 25.0193 253.24 24.6168C253.512 24.4427 253.816 24.2904 254.12 24.1599C254.229 24.1164 254.327 24.0729 254.436 24.0403V23.9641L254.186 24.0511L254.077 24.0946C253.773 24.2252 253.479 24.3775 253.196 24.5515C253.001 24.0185 252.87 23.4528 252.816 22.8763C253.294 22.5826 253.816 22.3433 254.349 22.191V22.2127C254.37 22.4085 254.403 22.6152 254.436 22.8002H254.523L254.49 22.6479C254.468 22.4847 254.436 22.3324 254.425 22.1692C254.555 22.1257 254.686 22.104 254.816 22.0713C255.001 22.0278 255.197 21.9952 255.392 21.9734H255.458L255.686 21.9517C255.686 22.0605 255.708 22.1692 255.729 22.278L255.795 22.2019L255.762 21.9408H256.023L256.099 21.8538H256.088C255.99 21.8538 255.881 21.8538 255.773 21.8646H255.751C255.74 21.6688 255.729 21.473 255.729 21.2881C255.729 20.9074 255.762 20.5158 255.827 20.135C255.925 20.135 256.034 20.135 256.132 20.135H256.153C256.436 20.135 256.708 20.1568 256.99 20.1894L257.208 20.2221C257.306 20.2438 257.403 20.2656 257.501 20.2765C257.479 20.407 257.469 20.5375 257.447 20.6681L257.534 20.6137C257.545 20.5049 257.556 20.3961 257.577 20.2982C257.686 20.32 257.795 20.3526 257.903 20.3852L257.99 20.3309C257.86 20.2982 257.73 20.2547 257.588 20.2221C257.697 19.6455 257.871 19.1016 258.121 18.5904C258.567 18.6883 259.001 18.8514 259.425 19.0472C259.523 19.0908 259.61 19.1343 259.697 19.1887C259.621 19.3301 259.567 19.4824 259.512 19.6238L259.599 19.5911C259.654 19.4715 259.708 19.341 259.762 19.2213C259.882 19.2866 260.001 19.3627 260.121 19.4389L260.219 19.4171C260.078 19.3301 259.936 19.2322 259.795 19.156C260.045 18.6339 260.36 18.1552 260.73 17.731C261.056 17.9159 261.36 18.1226 261.654 18.3619L261.599 18.2205L261.871 18.3293ZM260.98 17.731C260.491 17.4591 259.969 17.2633 259.425 17.1327C259.795 16.7194 260.208 16.3713 260.675 16.0667L260.708 16.0449C261.252 16.1646 261.773 16.3713 262.263 16.6323C261.795 16.9478 261.36 17.3176 260.991 17.731M263.763 17.6331C263.361 17.2415 262.915 16.8934 262.415 16.6214C262.893 16.3277 263.393 16.0993 263.926 15.9361C264.045 16.0014 264.154 16.0667 264.263 16.1319L264.328 16.1754C264.437 16.2516 264.535 16.3169 264.643 16.393L264.741 16.48L264.969 16.665L265.1 16.7846L265.263 16.9369C264.73 17.1001 264.219 17.3394 263.752 17.644M256.392 17.1871C256.762 16.7846 257.175 16.4365 257.632 16.1537C258.023 16.0449 258.414 15.9688 258.817 15.9361C258.371 16.2407 257.958 16.5888 257.599 16.9913C257.447 16.9913 257.306 17.0131 257.153 17.0348C256.903 17.0783 256.642 17.1218 256.392 17.1871ZM257.708 16.9804C258.088 16.5671 258.512 16.2081 258.969 15.9144C259.088 15.9144 259.219 15.9035 259.338 15.9035C259.762 15.9035 260.175 15.947 260.599 16.034C260.132 16.3495 259.708 16.7085 259.338 17.1218C259.012 17.0457 258.675 17.0022 258.338 16.9804H258.056H257.99C257.893 16.9804 257.795 16.9804 257.697 16.9804M265.35 16.926C265.252 16.8281 265.143 16.7411 265.046 16.6432C264.872 16.5018 264.698 16.3604 264.513 16.2298C264.35 16.1211 264.187 16.0123 264.024 15.9253C264.426 15.8165 264.839 15.7403 265.252 15.7077C265.741 15.9796 266.187 16.306 266.589 16.6976C266.176 16.7302 265.752 16.8064 265.35 16.926ZM266.687 16.6867C266.296 16.2951 265.861 15.9688 265.393 15.6968C265.491 15.6968 265.589 15.6968 265.676 15.6968C266.122 15.6968 266.557 15.7403 266.991 15.8382C267.459 16.0993 267.905 16.4148 268.296 16.7955H268.242C267.861 16.7193 267.481 16.6758 267.1 16.6758H267.046C266.926 16.6758 266.817 16.6758 266.698 16.6976M262.339 16.6106C261.85 16.3386 261.339 16.1428 260.795 16.0123C261.263 15.7186 261.763 15.4901 262.295 15.3378C262.437 15.3596 262.567 15.4031 262.697 15.4357L262.795 15.4684C262.893 15.501 263.002 15.5336 263.1 15.5772L263.241 15.6315L263.502 15.7403L263.654 15.8165L263.839 15.9035C263.317 16.0667 262.806 16.306 262.339 16.5997M260.654 15.1856C260.752 15.1856 260.86 15.1856 260.958 15.1856C261.36 15.1856 261.752 15.2291 262.154 15.3052C261.643 15.4684 261.154 15.6968 260.697 15.9905L260.545 15.9579C260.154 15.8817 259.751 15.8382 259.349 15.8382H259.11C259.534 15.588 260.001 15.3814 260.469 15.2291L260.556 15.1964H260.643L260.654 15.1856ZM263.937 15.86C263.817 15.7947 263.698 15.7403 263.578 15.6751C263.35 15.5663 263.121 15.4793 262.882 15.4031L262.839 15.3814L262.665 15.327L262.447 15.2617C262.839 15.1638 263.23 15.0876 263.632 15.0659C264.154 15.1856 264.665 15.3705 265.143 15.6207C264.741 15.6533 264.339 15.7403 263.937 15.8491M263.643 14.9897L263.448 15.0115C263.056 15.0441 262.676 15.1203 262.306 15.2291C261.936 15.1529 261.567 15.0985 261.197 15.0876H260.969C260.839 15.0876 260.708 15.0876 260.567 15.0985C260.349 15.1638 260.143 15.2291 259.936 15.3161C259.588 15.4575 259.273 15.6315 258.958 15.8274C258.61 15.8491 258.273 15.9035 257.936 15.9796C257.827 16.0014 257.73 16.0232 257.621 16.0667C257.523 16.1319 257.425 16.1972 257.327 16.2625C256.947 16.5344 256.599 16.8499 256.284 17.2089C255.86 17.3285 255.458 17.4917 255.066 17.7092C254.936 17.7745 254.805 17.8507 254.686 17.9268C254.577 18.0573 254.479 18.177 254.381 18.3075C254.12 18.6556 253.881 19.0255 253.696 19.4171C253.349 19.6347 253.022 19.8957 252.729 20.1786C252.599 20.2982 252.479 20.4288 252.348 20.5593C252.262 20.7333 252.185 20.9183 252.12 21.0923C251.968 21.473 251.859 21.8646 251.783 22.2671C251.522 22.5608 251.283 22.8763 251.087 23.2026C250.979 23.3767 250.881 23.5507 250.794 23.7357C250.75 23.9532 250.729 24.1708 250.707 24.3775C250.674 24.7582 250.664 25.1498 250.707 25.5305C250.544 25.8569 250.413 26.205 250.305 26.564C250.24 26.7815 250.185 27.0099 250.142 27.2384C250.163 27.4886 250.196 27.717 250.24 27.9563C250.305 28.3044 250.403 28.6525 250.533 28.9897C250.468 29.3487 250.435 29.6968 250.424 30.0558C250.424 30.2951 250.424 30.5453 250.446 30.7846C250.533 31.0239 250.631 31.2524 250.74 31.4591C250.892 31.7745 251.077 32.0791 251.283 32.3619C251.316 32.7209 251.37 33.069 251.457 33.4171C251.511 33.6564 251.588 33.8849 251.675 34.1133C251.816 34.3091 251.957 34.494 252.109 34.6681C252.348 34.9291 252.609 35.1793 252.892 35.3969C253.012 35.7232 253.164 36.0496 253.327 36.3542C253.446 36.5717 253.577 36.7784 253.718 36.9742C253.903 37.1265 254.099 37.2679 254.305 37.3876C254.599 37.5725 254.914 37.7357 255.24 37.8553C255.458 38.149 255.697 38.4319 255.958 38.6821C256.121 38.8452 256.284 38.9975 256.469 39.1389C256.675 39.226 256.882 39.3021 257.088 39.3674C257.436 39.4653 257.795 39.5414 258.164 39.5741C258.469 39.8134 258.795 40.0309 259.121 40.205C259.306 40.3029 259.491 40.3899 259.675 40.466H259.686C259.871 40.4878 260.078 40.4987 260.273 40.5096H260.338C260.697 40.5096 261.067 40.4769 261.426 40.4117C261.795 40.564 262.176 40.6836 262.567 40.7598C262.752 40.8033 262.926 40.825 263.111 40.8468C263.284 40.8141 263.458 40.7706 263.632 40.738C264.024 40.6292 264.415 40.4878 264.774 40.3029C264.991 40.3246 265.219 40.3355 265.448 40.3355C265.654 40.3355 265.861 40.3355 266.067 40.3029C266.22 40.292 266.372 40.2702 266.524 40.2485C266.654 40.1832 266.785 40.1071 266.915 40.0418C267.296 39.8242 267.654 39.5523 267.981 39.2586C268.426 39.1824 268.872 39.0519 269.296 38.867C269.416 38.8235 269.524 38.7691 269.644 38.7038L269.905 38.4536C270.231 38.1164 270.535 37.7465 270.785 37.3332C271.264 37.0939 271.72 36.8002 272.122 36.4521L272.242 36.3433L272.318 36.2127C272.601 35.745 272.818 35.2446 272.981 34.7116C273.383 34.3526 273.731 33.9392 274.036 33.4932L274.123 33.3518L274.166 33.1778C274.307 32.6556 274.383 32.1226 274.394 31.5787C274.677 31.111 274.916 30.6214 275.079 30.1102L275.123 29.9579V29.7947C275.123 29.2508 275.047 28.7069 274.916 28.1739C275.079 27.63 275.166 27.0752 275.188 26.5096V26.4008V26.3899L275.166 26.292C275.014 25.7481 274.797 25.226 274.525 24.7364C274.536 24.149 274.47 23.5725 274.329 23.0068V22.9633L274.318 22.9525L274.297 22.9089C274.014 22.4085 273.655 21.9517 273.242 21.5492C273.101 20.9835 272.883 20.4505 272.601 19.9501L272.568 19.8957L272.525 19.8522C272.112 19.4606 271.655 19.1125 271.155 18.8406C270.872 18.3511 270.524 17.8942 270.133 17.4917L270.079 17.4373L270.013 17.3938C269.524 17.1327 268.992 16.9369 268.437 16.8064C268.035 16.4148 267.589 16.0775 267.111 15.8056L267.024 15.7621L266.926 15.7403C266.524 15.6533 266.1 15.6207 265.687 15.6207C265.556 15.6207 265.415 15.6207 265.285 15.6315C264.817 15.3814 264.328 15.1856 263.828 15.055L263.654 15.0115L263.643 14.9897Z" fill="white"/>
<path d="M256.578 22.9198H253.903C254.012 22.9524 254.534 23.0829 254.621 24.0728V24.1599L254.632 24.3557V32.0247C254.632 32.4054 254.577 32.6773 254.512 32.884L254.479 32.9602C254.327 33.2974 254.11 33.4062 254.001 33.4279H253.947L254.001 33.4388H256.588C256.447 33.417 255.882 33.243 255.882 32.0138V24.3448C255.882 23.0721 256.501 22.9306 256.588 22.9089M270.851 22.6369C270.644 22.6369 270.438 22.6478 270.242 22.6804H270.166C268.796 22.9415 267.698 23.9314 267.698 25.4108C267.698 27.9998 270.731 28.3044 271.96 29.7294L272.003 29.7838C272.286 30.1319 272.46 30.5453 272.46 31.0783C272.46 31.2523 272.438 31.4155 272.394 31.5678L272.351 31.6874C272.221 32.0682 271.949 32.351 271.612 32.5468L271.547 32.5794C271.21 32.7535 270.807 32.8405 270.405 32.8405C270.231 32.8405 270.057 32.8296 269.883 32.797L269.807 32.7752L269.622 32.7317L269.514 32.6991C268.655 32.4271 267.981 31.731 267.579 30.4038V32.8079C268.209 33.2539 269.046 33.5693 269.97 33.6237H270.046L270.231 33.6346C270.775 33.6346 271.253 33.5693 271.666 33.4388L271.731 33.417C272.297 33.2212 272.731 32.9167 273.047 32.5142L273.112 32.4271L273.177 32.3292C273.471 31.8724 273.612 31.3393 273.612 30.7954V30.5344L273.59 30.4256C273.525 29.7838 273.275 29.2943 272.927 28.8809L272.873 28.8265C272.503 28.4132 272.036 28.0977 271.547 27.804L271.481 27.7605C270.177 27.0099 268.774 26.4769 268.774 25.1389C268.774 24.4427 269.198 23.79 269.949 23.5289L270.166 23.4637C270.318 23.431 270.481 23.4093 270.655 23.4093C271.036 23.4093 271.405 23.4854 271.731 23.6486L271.807 23.6812C272.231 23.9097 272.601 24.2904 272.862 24.8669L272.938 25.0301L273.014 25.2259L273.047 25.3456L273.068 25.4108V23.3223C272.797 23.1047 272.405 22.9089 271.96 22.7784L271.884 22.7566C271.557 22.6696 271.199 22.6152 270.851 22.6152M263.372 17.9268H261.404C261.469 17.9485 261.676 18.0029 261.817 18.3075L261.872 18.4489C261.915 18.5903 261.937 18.7644 261.937 18.9819V20.5375H260.752C259.828 20.5375 259.73 20.0697 259.719 20.0045V22.0169C259.741 21.919 259.86 21.473 260.752 21.473H261.937V26.6183C261.937 27.3689 261.665 27.5864 261.513 27.6408H259.578V24.3557C259.578 23.0285 260.187 22.9089 260.284 22.8871H257.599C257.719 22.9089 258.328 23.0612 258.328 24.3557V31.9376C258.328 33.2539 257.741 33.3844 257.621 33.4062H260.284C260.143 33.3844 259.578 33.2104 259.578 31.9376V28.4349H265.187V31.9376C265.187 33.2539 264.622 33.3844 264.491 33.4062H267.144C267.003 33.3844 266.448 33.2104 266.448 31.9376V24.3557C266.448 23.0612 267.013 22.9089 267.144 22.8871H264.481C264.6 22.9089 265.187 23.0612 265.187 24.3557V27.6408H263.285C263.122 27.5756 262.85 27.3471 262.85 26.6183V21.473H264.035C264.948 21.473 265.046 21.8972 265.057 21.9951V20.0045C265.057 20.1132 264.926 20.5375 264.035 20.5375H262.85V18.9819C262.85 18.6338 262.915 18.3945 262.991 18.2422C263.133 17.9811 263.328 17.9268 263.372 17.9268Z" fill="white"/>
<path d="M262.533 33.6887C262.533 34.1783 261.566 34.7657 261.566 34.7657C261.653 34.7874 262.099 34.9071 262.099 35.8208C262.099 35.8208 262.164 36.4844 262.24 37.2676V37.3982C262.283 37.7354 262.316 38.0943 262.349 38.4207V38.5077C262.37 38.6709 262.392 38.8123 262.403 38.9537C262.349 38.8558 262.294 38.7253 262.229 38.6056L262.196 38.5403C261.957 38.0617 261.675 37.4852 261.435 36.9957L261.403 36.9304C261.153 36.43 260.979 36.0602 260.979 36.0602C260.501 35.2769 260.816 34.9397 260.881 34.8745H260.848C260.653 34.8745 259.729 34.8527 259.5 34.4937C259.75 34.8962 259.218 35.9514 259.218 35.9514L259.381 35.9187C259.566 35.9187 259.881 36.0166 260.207 36.5605C260.207 36.5605 260.457 36.9086 260.794 37.3655L260.848 37.4308C261.142 37.8441 261.511 38.3554 261.816 38.7797L261.859 38.8449C262.055 39.1169 262.229 39.3562 262.338 39.5085L262.436 39.6499L262.468 39.6934H262.533H262.729L262.762 39.7043C262.783 39.6499 263.175 39.106 263.62 38.486L263.664 38.4207C264.012 37.9312 264.392 37.4199 264.664 37.0501L264.707 36.9848C264.892 36.7346 265.012 36.5605 265.012 36.5605C265.349 36.0166 265.664 35.9187 265.838 35.9187L266.001 35.9405C266.001 35.9405 265.468 34.8962 265.718 34.4828C265.49 34.8418 264.577 34.8636 264.371 34.8636H264.338C264.403 34.9397 264.718 35.2769 264.24 36.0493C264.24 36.0493 264.153 36.2342 264.001 36.5279V36.5497C263.925 36.6802 263.849 36.8325 263.773 36.9957C263.718 37.1044 263.664 37.2132 263.61 37.3329C263.49 37.5831 263.349 37.855 263.229 38.1052L263.186 38.1814C263.044 38.4751 262.903 38.7579 262.794 38.9755C262.805 38.7253 262.838 38.4207 262.859 38.1052V37.9964L262.87 37.9312V37.8333C262.946 36.8325 263.033 35.7991 263.033 35.7991C263.033 34.8527 263.49 34.7548 263.555 34.7439C263.555 34.7439 262.555 34.1565 262.555 33.667" fill="white"/>
<path d="M250.218 18.96C250.109 19.1231 250.022 19.221 249.925 19.3624C249.598 19.8628 249.74 20.3959 250.24 20.7331C250.425 20.8636 250.62 20.9289 250.816 20.9289C251.077 20.9289 251.327 20.8092 251.49 20.5481C251.74 20.1565 251.631 19.8302 251.523 19.7541H251.512C251.544 19.8737 251.533 20.0695 251.392 20.2871C251.251 20.5155 251.055 20.6134 250.849 20.6134C250.675 20.6134 250.501 20.5482 250.327 20.4285C249.979 20.2001 249.772 19.8302 250.022 19.4386C250.164 19.221 250.305 19.1884 250.425 19.1884H250.501L250.196 18.9708L250.218 18.96Z" fill="white"/>
<path d="M252.118 19.1885C251.868 19.1885 251.618 19.0253 251.433 18.8622C251.118 18.5793 250.955 18.1769 251.238 17.8614C251.346 17.7309 251.477 17.6873 251.618 17.6873C251.857 17.6873 252.118 17.8505 252.303 18.0246C252.618 18.3074 252.781 18.7099 252.499 19.0253C252.379 19.145 252.248 19.1994 252.118 19.1994M251.792 17.4371C251.575 17.4371 251.357 17.535 251.161 17.7526C250.759 18.2095 250.879 18.7751 251.292 19.145C251.488 19.3299 251.716 19.4387 251.944 19.4387C252.162 19.4387 252.379 19.3408 252.575 19.1124C252.977 18.6555 252.846 18.1007 252.444 17.72C252.248 17.5351 252.02 17.4263 251.792 17.4263" fill="white"/>
<path d="M253.719 15.4031L253.49 15.5989L253.469 15.773L253.827 17.0566V17.1436L253.741 17.1001L252.61 16.3604H252.588L252.512 16.3821L252.229 16.6106H252.251L252.382 16.6976L252.838 17.2741C253.034 17.5243 253.306 17.905 253.327 18.1008V18.1444L253.599 17.9268C253.49 17.8942 253.371 17.7419 253.23 17.5569L252.643 16.7955L252.599 16.6976H252.61L252.751 16.7737L254.078 17.5569L253.621 15.9144V15.86H253.632L253.675 15.8926L254.273 16.665C254.371 16.7955 254.501 16.9587 254.556 17.111L254.882 16.839C254.762 16.7846 254.665 16.6867 254.578 16.5888C254.328 16.3386 254.121 16.034 253.904 15.7512C253.817 15.6315 253.708 15.5119 253.686 15.3813" fill="white"/>
<path d="M255.228 14.5439C255.13 14.5439 255.022 14.5766 254.913 14.6418C254.717 14.7615 254.543 14.9029 254.337 15.0226C254.446 15.077 254.522 15.2075 254.587 15.3272L255.141 16.2953C255.196 16.3932 255.283 16.5346 255.283 16.6652L255.631 16.4585C255.522 16.4041 255.435 16.2627 255.37 16.1648L254.674 14.9356L254.87 14.8159L255.087 14.7397C255.217 14.7397 255.315 14.8377 255.391 14.9791C255.609 15.3489 255.391 15.5338 255.207 15.6753H255.239C255.239 15.6753 255.348 15.6753 255.457 15.5991C255.75 15.4142 255.815 15.0987 255.641 14.7941C255.554 14.631 255.413 14.5439 255.25 14.5439" fill="white"/>
<path d="M256.447 14.9023L256.425 14.2169L256.447 14.1299L256.512 14.1734L256.947 14.6738L256.447 14.9023ZM256.545 13.8253L256.23 13.9667L256.251 14.0429C256.349 14.2713 256.295 15.6855 256.23 15.9465L256.208 16.0444L256.545 15.8922L256.491 15.7943C256.425 15.642 256.425 15.3156 256.447 15.0328L257.045 14.7608L257.665 15.3918L257.958 15.2612L257.86 15.1851C257.382 14.7935 256.958 14.2822 256.556 13.8145" fill="white"/>
<path d="M259.294 12.8904L259 12.9666C259.055 13.0318 259.109 13.1188 259.163 13.3147L259.435 14.3263V14.3916L259.359 14.3372L258.587 13.6845C258.468 13.5866 258.207 13.3255 258.131 13.2603L258.066 13.2276H258.011L257.729 13.3147C257.837 13.3799 257.881 13.5322 257.913 13.6736L258.076 14.2828C258.142 14.533 258.239 14.8811 258.196 15.153L258.522 15.066C258.381 14.8811 258.305 14.5874 258.25 14.3481L258.055 13.6084V13.554L258.087 13.5866L259.511 14.7941L259.707 14.7397C259.674 14.6526 259.653 14.5656 259.631 14.4677L259.327 13.3255C259.283 13.1732 259.261 13.0209 259.294 12.8687" fill="white"/>
<path d="M261.436 12.5854L261.044 12.629C261.12 12.7377 261.142 12.8792 261.153 13.0097L261.207 13.4339L260.349 13.5318L260.305 13.1076C260.294 12.9771 260.273 12.8356 260.327 12.716L259.936 12.7595C260.012 12.8683 260.033 13.0097 260.044 13.1402L260.164 14.2498C260.186 14.3803 260.196 14.5217 260.142 14.6414L260.533 14.5979C260.457 14.4891 260.436 14.3477 260.425 14.2172L260.36 13.6406L261.218 13.5427L261.284 14.1192C261.305 14.2498 261.316 14.3912 261.262 14.5109L261.653 14.4673C261.577 14.3586 261.555 14.228 261.544 14.0866L261.414 12.9771C261.403 12.8465 261.381 12.7051 261.436 12.5854Z" fill="white"/>
<path d="M262.555 12.5527H262.164C262.229 12.6506 262.229 12.8138 262.229 12.9443V14.0648C262.229 14.1953 262.24 14.3585 262.175 14.4564H262.566C262.501 14.3476 262.49 14.1953 262.49 14.0648V12.9443C262.479 12.8138 262.468 12.6615 262.545 12.5527" fill="white"/>
<path d="M263.959 13.5864L263.404 13.5321L263.709 12.9229L263.763 12.8576L263.807 12.9338L263.959 13.5864ZM263.654 12.6074V12.6944C263.622 12.9338 262.915 14.1521 262.73 14.3479L262.654 14.424L263.013 14.4567V14.3479C263.024 14.1739 263.187 13.9019 263.328 13.6517L263.981 13.717L264.22 14.5763L264.535 14.609L264.481 14.5002C264.241 13.9237 264.111 13.2601 263.981 12.6509L263.633 12.6183L263.654 12.6074Z" fill="white"/>
<path d="M266.35 14.8591L266.111 14.8155C265.806 14.7285 265.752 14.6959 265.817 14.4892L266.176 13.2382L266.219 13.1077C266.285 13.1077 266.383 13.1295 266.491 13.1621C266.991 13.3144 267.165 13.706 267.024 14.1955C266.915 14.5871 266.698 14.8591 266.35 14.8591ZM265.937 12.901C265.969 13.0207 265.937 13.1621 265.893 13.2926L265.589 14.3695C265.545 14.5001 265.513 14.6415 265.415 14.7285C265.611 14.7829 265.806 14.8591 266.089 14.9352C266.198 14.9678 266.306 14.9787 266.415 14.9787C266.828 14.9787 267.187 14.7394 267.339 14.2281C267.48 13.7169 267.263 13.26 266.796 13.1186C266.513 13.0316 266.23 12.9772 265.948 12.8901" fill="white"/>
<path d="M268.122 13.6193C268.144 13.7389 268.079 13.8803 268.024 14L267.589 15.0225C267.535 15.1422 267.459 15.2836 267.372 15.3489L268.144 15.697C268.242 15.7405 268.329 15.7731 268.405 15.7949L268.557 15.5664L268.372 15.5991C268.253 15.5991 268.133 15.5664 268.024 15.5121L267.72 15.3706L268.035 14.6418L268.1 14.6744C268.22 14.7288 268.416 14.8159 268.568 14.8159L268.72 14.7723C268.513 14.6962 268.296 14.5983 268.09 14.5113L268.372 13.8586L268.622 13.9674C268.774 14.0326 268.916 14.1197 268.97 14.2393L269.046 14.0218L268.122 13.6084V13.6193Z" fill="white"/>
<path d="M270.242 14.6851C270.242 14.8047 270.166 14.9461 270.101 15.0549L269.579 15.936C269.492 16.0883 269.274 16.4364 269.024 16.6431L269.155 16.6649C269.296 16.6649 269.405 16.5887 269.492 16.5017C269.622 16.3712 269.709 16.2297 269.807 16.0666L270.318 15.2072C270.394 15.0875 270.47 14.957 270.568 14.9135L270.231 14.7068L270.242 14.6851Z" fill="white"/>
<path d="M271.013 15.1636C271.013 15.2832 270.915 15.4138 270.839 15.5225L270.198 16.4254C270.122 16.5342 270.024 16.6539 269.915 16.6974L270.6 17.2086L270.828 17.3609L271.024 17.1651H270.969C270.806 17.1651 270.654 17.0999 270.524 17.002L270.252 16.8062L270.709 16.1535L270.774 16.197C270.893 16.284 271.1 16.4472 271.274 16.4472L271.361 16.4254C271.165 16.3058 270.98 16.1644 270.796 16.0338L271.209 15.4573L271.426 15.6205C271.557 15.7184 271.676 15.838 271.709 15.9685L271.828 15.7727L271.013 15.1636Z" fill="white"/>
<path d="M272.351 16.3604C272.231 16.3604 272.1 16.4147 272.003 16.5235C271.644 16.9369 272.296 17.4482 271.97 17.8289L271.709 17.9594C271.611 17.9594 271.513 17.9159 271.437 17.8398C271.209 17.6222 271.231 17.4155 271.242 17.2632L271.035 17.5025C271.09 17.6331 271.231 17.8289 271.34 17.9159C271.481 18.0464 271.655 18.1226 271.84 18.1226C271.981 18.1226 272.111 18.0682 272.22 17.9485C272.59 17.5243 271.937 17.0022 272.242 16.6541L272.47 16.5453L272.72 16.6649C272.861 16.7955 272.905 16.8716 272.905 17.0674L273.079 16.8607C272.97 16.7628 272.872 16.6432 272.764 16.5453C272.644 16.4256 272.492 16.3604 272.34 16.3604" fill="white"/>
<path d="M273.46 17.2522C273.428 17.3719 273.308 17.4698 273.21 17.5677L272.439 18.253C272.178 18.5032 272.221 18.7643 272.439 19.0253C272.612 19.232 272.808 19.3082 272.96 19.3299H273.004V19.3517L272.852 19.4713L273.091 19.7215C273.123 19.6019 273.232 19.504 273.33 19.4169L274.156 18.6772C274.254 18.5902 274.374 18.4923 274.482 18.4706L274.232 18.166C274.2 18.2856 274.08 18.3835 273.982 18.4814L273.645 18.786L273.384 19.0036C273.243 19.1232 273.102 19.1994 272.971 19.1994C272.862 19.1994 272.765 19.145 272.667 19.0253C272.449 18.7751 272.515 18.5467 272.743 18.3291L273.373 17.7526C273.471 17.6656 273.591 17.5568 273.71 17.5351L273.46 17.2305V17.2522Z" fill="white"/>
<path d="M274.731 19.1124L274.459 19.1995C274.013 19.504 274.535 20.1785 274.122 20.4613L273.915 20.5266C273.796 20.5266 273.687 20.4613 273.611 20.3417C273.437 20.0806 273.502 19.8739 273.557 19.7325L273.307 19.9065C273.328 20.0588 273.415 20.2655 273.502 20.396C273.633 20.581 273.85 20.7333 274.068 20.7333C274.165 20.7333 274.252 20.7006 274.35 20.6354C274.807 20.3199 274.296 19.6455 274.665 19.3844L274.85 19.3191C274.959 19.3191 275.057 19.3844 275.133 19.504C275.242 19.6672 275.253 19.7542 275.22 19.9392L275.437 19.7869C275.35 19.6563 275.285 19.5258 275.198 19.3953C275.079 19.2212 274.905 19.1016 274.731 19.1016" fill="white"/>
<path d="M257.881 40.3136C257.903 40.4333 257.837 40.5747 257.794 40.6943L257.402 41.6407C257.337 41.8039 257.174 42.1846 256.957 42.4131H257.033C257.196 42.4131 257.316 42.326 257.402 42.1955C257.511 42.0432 257.587 41.8909 257.653 41.7169L258.044 40.7922C258.098 40.6726 258.153 40.5312 258.25 40.4659L257.892 40.3027L257.881 40.3136Z" fill="white"/>
<path d="M258.577 40.6182C258.61 40.7378 258.556 40.8792 258.512 41.0098L258.164 42.0758C258.121 42.2064 258.066 42.3478 257.979 42.4239L258.773 42.6959C258.871 42.7285 258.969 42.7503 259.045 42.772L259.186 42.5327L258.947 42.5762C258.849 42.5762 258.751 42.5544 258.664 42.5218L258.349 42.413L258.599 41.6516L258.664 41.6733C258.773 41.7168 258.947 41.7712 259.099 41.7712L259.295 41.7168C259.077 41.6625 258.86 41.5863 258.643 41.5102L258.871 40.8357L259.121 40.9227C259.284 40.9771 259.425 41.0533 259.491 41.1729L259.545 40.9554L258.588 40.6182H258.577Z" fill="white"/>
<path d="M260.293 41.1294C260.054 41.1294 259.848 41.249 259.783 41.521C259.663 42.054 260.489 42.1737 260.391 42.6741C260.348 42.8699 260.207 42.9678 260.043 42.9678H259.935C259.63 42.8916 259.554 42.6849 259.489 42.5435L259.424 42.859C259.543 42.946 259.75 43.0439 259.891 43.0657L260.065 43.0874C260.337 43.0874 260.609 42.9569 260.674 42.6523C260.794 42.0867 259.967 41.967 260.065 41.521C260.109 41.347 260.228 41.2708 260.37 41.2708L260.489 41.2926C260.674 41.3361 260.75 41.3905 260.848 41.5536L260.902 41.2817C260.761 41.2491 260.62 41.2055 260.467 41.1729L260.293 41.1512V41.1294Z" fill="white"/>
<path d="M261.239 41.3691C261.293 41.4779 261.282 41.6302 261.272 41.7607L261.195 42.805C261.185 43.1749 261.391 43.3272 261.728 43.3489H261.793C262.022 43.3489 262.185 43.2619 262.293 43.1858L262.326 43.1531V43.1749L262.315 43.3707H262.663C262.609 43.2728 262.62 43.1205 262.63 42.99L262.707 41.8695C262.707 41.739 262.728 41.5758 262.804 41.4779L262.413 41.4562C262.467 41.5649 262.456 41.7172 262.446 41.8478L262.413 42.3155C262.413 42.4352 262.391 42.544 262.38 42.6636C262.348 43.0008 262.239 43.2075 261.946 43.2075H261.891C261.565 43.1749 261.446 42.9791 261.467 42.6527L261.532 41.7825C261.532 41.652 261.554 41.4997 261.619 41.3909L261.228 41.3691H261.239Z" fill="white"/>
<path d="M263.534 41.423L263.143 41.4448C263.208 41.5427 263.219 41.6949 263.23 41.8364L263.284 42.9568C263.284 43.0873 263.295 43.2396 263.24 43.3484L263.632 43.3267C263.556 43.2288 263.556 43.0765 263.556 42.9459L263.501 41.8255C263.501 41.695 263.48 41.5427 263.545 41.4339M263.654 40.8356L263.534 40.9226L263.501 40.9552L263.143 41.3577H263.24L263.708 41.0205L263.762 40.9335L263.664 40.8247L263.654 40.8356Z" fill="white"/>
<path d="M265.252 41.1945L263.806 41.4229L263.784 41.6405L263.98 41.5426L264.36 41.4773L264.567 42.8262C264.589 42.9567 264.61 43.109 264.567 43.2178L264.958 43.1525C264.882 43.0655 264.86 42.9132 264.839 42.7827L264.643 41.4338L264.958 41.3903C265.078 41.3685 265.252 41.325 265.284 41.1836" fill="white"/>
<path d="M266.056 41.9562L266.132 41.2709L266.165 41.1838L266.23 41.2382L266.6 41.793L266.067 41.9453L266.056 41.9562ZM266.295 40.901L265.969 40.9989V41.0751C266.045 41.3144 265.817 42.7068 265.719 42.957L265.676 43.0549L266.024 42.957L265.98 42.8482C265.937 42.685 265.98 42.3695 266.035 42.0758L266.665 41.8909L267.198 42.598L267.502 42.511L267.415 42.4239C266.991 41.9779 266.632 41.4014 266.306 40.8901" fill="white"/>
<path d="M268.044 40.1936C267.914 40.248 267.762 40.3024 267.631 40.3568C267.349 40.4765 267.164 40.7484 267.294 41.0639C267.501 41.5643 268.24 41.1727 268.436 41.6295C268.523 41.8471 268.436 42.032 268.229 42.1299C268.131 42.1734 268.055 42.1843 267.979 42.1843C267.827 42.1843 267.718 42.1082 267.631 42.0646L267.751 42.3475C267.892 42.3475 268.121 42.304 268.251 42.2387C268.544 42.1082 268.795 41.7709 268.653 41.4337C268.436 40.9116 267.697 41.3032 267.512 40.8789C267.425 40.6723 267.523 40.52 267.707 40.4329L267.925 40.3677L268.142 40.4221L268.034 40.1719L268.044 40.1936Z" fill="white"/>
</g>
<defs>
<clipPath id="clip0_253_1546">
<rect width="175.323" height="56" fill="white" transform="translate(234.911)"/>
</clipPath>
</defs>
</svg>
